<svg xmlns="http://www.w3.org/2000/svg" xmlns:xlink="http://www.w3.org/1999/xlink" xmlns:fi="http://pattern.flaticon.com/" x="0" y="0" width="1000" height="500" viewBox="0 0 700 350"><rect x="0px" y="0px" width="100%" height="100%" opacity="1" fill="#ffffff"/><defs><path d="M165,0C74.019,0,0,74.019,0,165s74.019,165,165,165c90.982,0,165-74.019,165-165S255.982,0,165,0z" transform="matrix(0.03030303120613098 0 0 0.03030303120613098 257.5 257.5)" id="L1_32" fill="#6c98e5"/><g transform="matrix(0.06383983790874481 0 0 0.06383983790874481 335 160)" id="L1_33"><path d="M419.13,114.83c-16.255,32.119-39.754,60.279-68.577,81.979   c-27.189,20.47-58.58,34.731-91.848,41.862c62.542,27.979,135.53,25.304,196.166-8.024   C454.045,187.985,441.014,148.264,419.13,114.83z" fill="#ffffff"/><path d="M319.343,322.694c-12.67-6.569-24.674-14.278-35.878-22.998   c32.451,36.051,76.463,61.069,125.435,69.75c5.044-6.509,9.74-13.301,14.042-20.36   C386.941,348.319,351.381,339.306,319.343,322.694z" fill="#ffffff"/><path d="M273.116,350.553c-20.477-27.197-34.739-58.598-41.868-91.877   c-14.027,31.207-20.593,65.196-19.079,99.5c0.181,4.093-2.956,7.559-7.027,7.812c0.387,5.006,0.94,9.993,1.655,14.953   c4.022-0.635,7.843,2.057,8.56,6.09c4.242,23.888,12.286,46.688,23.92,67.842c42.663-0.825,82.384-13.857,115.819-35.741   C322.977,402.874,294.816,379.375,273.116,350.553z" fill="#ffffff"/><path d="M170.23,283.465c-36.051,32.451-61.069,76.463-69.75,125.435   c6.505,5.041,13.292,9.734,20.346,14.033c0.768-35.997,9.797-71.555,26.406-103.59C153.801,306.673,161.509,294.669,170.23,283.465   z" fill="#ffffff"/><path d="M150.583,147.231c12.67,6.569,24.674,14.278,35.878,22.998   c-32.451-36.051-76.463-61.069-125.435-69.75c-5.042,6.506-9.735,13.294-14.035,20.349C83,121.602,118.547,130.621,150.583,147.231   z" fill="#ffffff"/><path d="M119.373,273.116c27.189-20.47,58.58-34.731,91.848-41.862   c-62.542-27.979-135.53-25.304-196.166,8.024c0.826,42.663,13.857,82.383,35.741,115.817   C67.051,322.977,90.55,294.816,119.373,273.116z" fill="#ffffff"/><path d="M196.81,119.372c20.471,27.189,34.731,58.58,41.862,91.849   c27.98-62.542,25.305-135.531-8.024-196.167c-42.662,0.826-82.383,13.857-115.817,35.741   C146.949,67.051,175.109,90.549,196.81,119.372z" fill="#ffffff"/><path d="M360.225,96.027c4.026-11.399,7.117-23.153,9.22-35.002c-6.504-5.041-13.291-9.733-20.344-14.032   c-0.768,35.997-9.797,71.555-26.406,103.59c-6.658,12.84-14.486,24.996-23.351,36.329c20.147-17.996,36.967-39.698,49.446-64.219   c1.86-3.654,6.303-5.126,9.972-3.334c2.125-4.537,4.099-9.143,5.921-13.81C360.855,104.125,358.86,99.894,360.225,96.027z" fill="#ffffff"/><path d="M205.007,365.999c-0.113,0.005-0.226,0.007-0.337,0.007c-3.99,0-7.31-3.144-7.487-7.169   c-1.516-34.359,4.555-68.419,17.662-100.008c-50.52,42.247-80.059,105.742-79.05,172.437c26.222,13.301,55.45,21.495,86.37,23.278   c-10.297-20.435-17.549-42.203-21.578-64.892c-0.724-4.079,1.995-7.972,6.073-8.696c0.042-0.008,0.084-0.009,0.127-0.016   c-0.714-4.96-1.266-9.947-1.652-14.953C205.092,365.99,205.05,365.997,205.007,365.999z" fill="#e7453f"/><path d="M87.355,397.905c7.565-35.181,23.149-68.371,45.504-96.672   c13.477-17.061,29.26-32.102,46.817-44.747c-51.957,20.636-95.05,60.688-118.975,112.537   C68.72,379.422,77.639,389.094,87.355,397.905z" fill="#e7453f"/><path d="M119.323,196.96c31.53-0.281,62.74,5.851,91.777,17.889   c-42.247-50.522-105.744-80.063-172.441-79.054c-13.301,26.222-21.494,55.448-23.278,86.368   C47.559,205.969,83.222,197.286,119.323,196.96z" fill="#e7453f"/><path d="M168.693,132.859c17.061,13.477,32.102,29.26,44.747,46.817   c-20.636-51.957-60.689-95.05-112.537-118.975c-10.4,8.02-20.073,16.938-28.883,26.655   C107.202,94.92,140.392,110.504,168.693,132.859z" fill="#e7453f"/><path d="M272.966,119.323c0.284,31.499-5.851,62.73-17.892,91.78   c50.525-42.247,80.067-105.746,79.058-172.444c-26.222-13.301-55.448-21.494-86.368-23.278   C263.957,47.559,272.64,83.222,272.966,119.323z" fill="#e7453f"/><path d="M382.562,72.013c-2.112,9.813-4.844,19.529-8.192,29.01c-1.088,3.079-3.982,5.004-7.072,5.004   c-0.829,0-1.672-0.139-2.498-0.43c-0.04-0.014-0.077-0.033-0.117-0.048c-1.822,4.667-3.797,9.273-5.921,13.81   c0.038,0.018,0.077,0.032,0.114,0.051c3.691,1.879,5.161,6.395,3.283,10.086c-17.103,33.608-41.83,62.264-71.919,83.949   c51.962-20.635,95.059-60.689,118.986-112.541C401.203,90.5,392.282,80.825,382.562,72.013z" fill="#e7453f"/><path d="M350.603,272.966c-0.698,0.006-1.399,0.009-2.097,0.009c-30.785,0-61.274-6.122-89.678-17.895   c42.248,50.522,105.749,80.069,172.438,79.052c13.301-26.222,21.495-55.448,23.278-86.369   C422.367,263.957,386.703,272.64,350.603,272.966z" fill="#e7453f"/><path d="M301.232,337.066c-17.061-13.477-32.102-29.26-44.747-46.816   c20.636,51.956,60.689,95.049,112.536,118.975c10.4-8.02,20.073-16.938,28.883-26.655   C362.724,375.006,329.534,359.421,301.232,337.066z" fill="#e7453f"/><path d="M401.106,68.819C356.728,24.44,297.724,0,234.963,0S113.198,24.44,68.819,68.819   S0,172.202,0,234.963s24.44,121.765,68.819,166.144s103.383,68.819,166.144,68.819s121.765-24.44,166.144-68.819   s68.819-103.383,68.819-166.144S445.485,113.198,401.106,68.819z M408.9,369.446c-48.972-8.681-92.984-33.698-125.435-69.75   c11.204,8.72,23.208,16.429,35.878,22.998c32.038,16.611,67.599,25.625,103.599,26.392   C418.641,356.145,413.944,362.937,408.9,369.446z M239.277,454.871c-11.635-21.154-19.678-43.954-23.92-67.842   c-0.717-4.033-4.537-6.725-8.56-6.09c-0.052,0.008-0.094,0.01-0.137,0.017c-4.078,0.725-6.797,4.617-6.073,8.696   c4.029,22.689,11.281,44.456,21.578,64.892c-30.921-1.783-60.148-9.977-86.37-23.278c-1.009-66.695,28.53-130.19,79.05-172.437   c-13.107,31.589-19.177,65.648-17.662,100.008c0.178,4.025,3.497,7.169,7.487,7.169c0.111,0,0.224-0.002,0.337-0.007   c0.043-0.002,0.085-0.01,0.128-0.012c4.079-0.253,7.215-3.719,7.034-7.812c-1.514-34.303,5.052-68.293,19.079-99.5   c7.129,33.279,21.392,64.68,41.868,91.877c21.7,28.823,49.861,52.322,81.98,68.577C321.661,441.014,281.94,454.046,239.277,454.871   z M100.48,408.9c8.681-48.972,33.698-92.984,69.75-125.435c-8.72,11.204-16.429,23.208-22.998,35.878   c-16.609,32.035-25.638,67.594-26.406,103.59C113.772,418.634,106.985,413.941,100.48,408.9z M61.026,100.48   c48.972,8.681,92.984,33.698,125.435,69.75c-11.204-8.72-23.208-16.429-35.878-22.998c-32.036-16.61-67.583-25.63-103.592-26.403   C51.291,113.774,55.984,106.986,61.026,100.48z M230.647,15.055c33.329,60.636,36.004,133.625,8.024,196.167   c-7.131-33.269-21.392-64.66-41.862-91.849c-21.7-28.823-49.861-52.321-81.979-68.576   C148.264,28.912,187.985,15.881,230.647,15.055z M258.705,238.672c33.268-7.131,64.659-21.392,91.848-41.862   c28.823-21.7,52.322-49.861,68.577-81.979c21.884,33.434,34.915,73.155,35.741,115.817   C394.234,263.976,321.246,266.651,258.705,238.672z M334.131,38.66c1.009,66.698-28.533,130.197-79.058,172.444   c12.041-29.051,18.177-60.282,17.892-91.78c-0.326-36.101-9.009-71.765-25.203-103.941C278.683,17.165,307.91,25.359,334.131,38.66   z M38.66,135.794c66.697-1.008,130.194,28.532,172.441,79.054c-29.037-12.038-60.247-18.17-91.777-17.889   c-36.101,0.326-71.765,9.009-103.941,25.203C17.165,191.243,25.359,162.016,38.66,135.794z M211.221,231.254   c-33.268,7.131-64.659,21.392-91.848,41.862c-28.823,21.7-52.322,49.861-68.577,81.979   c-21.884-33.434-34.915-73.155-35.741-115.817C75.691,205.949,148.679,203.275,211.221,231.254z M431.266,334.132   c-66.689,1.017-130.189-28.53-172.438-79.052c28.404,11.772,58.893,17.895,89.678,17.895c0.697,0,1.398-0.003,2.097-0.009   c36.101-0.326,71.765-9.009,103.941-25.203C452.76,278.683,444.567,307.91,431.266,334.132z M290.24,213.445   c30.089-21.684,54.815-50.341,71.919-83.949c1.878-3.691,0.408-8.207-3.283-10.086c-0.038-0.019-0.076-0.033-0.114-0.051   c-3.668-1.792-8.112-0.32-9.972,3.334c-12.479,24.521-29.299,46.223-49.446,64.219c8.865-11.333,16.694-23.489,23.351-36.329   c16.609-32.035,25.638-67.594,26.406-103.59c7.053,4.299,13.84,8.992,20.344,14.032c-2.103,11.85-5.194,23.603-9.22,35.002   c-1.365,3.866,0.63,8.098,4.457,9.522c0.04,0.015,0.077,0.034,0.117,0.048c0.826,0.291,1.669,0.43,2.498,0.43   c3.09,0,5.984-1.925,7.072-5.004c3.349-9.482,6.08-19.197,8.192-29.01c9.72,8.813,18.642,18.488,26.664,28.891   C385.298,152.755,342.201,192.81,290.24,213.445z M100.904,60.701c51.848,23.925,91.901,67.018,112.537,118.975   c-12.645-17.556-27.686-33.34-44.747-46.817c-28.302-22.355-61.491-37.939-96.672-45.504   C80.831,77.639,90.504,68.72,100.904,60.701z M179.676,256.485c-17.556,12.645-33.34,27.686-46.817,44.747   c-22.355,28.302-37.94,61.491-45.504,96.672c-9.717-8.81-18.635-18.483-26.655-28.883   C84.626,317.174,127.719,277.121,179.676,256.485z M369.022,409.225c-51.847-23.926-91.9-67.019-112.536-118.975   c12.645,17.556,27.686,33.339,44.747,46.816c28.302,22.355,61.491,37.939,96.672,45.504   C389.094,392.287,379.422,401.206,369.022,409.225z" fill="#3d2a20"/></g><g transform="matrix(0.10640833526849747 0 0 0.10640833526849747 150 325)" id="L1_34"><path d="M307.676,407.726l-46.583-46.583l-16.97,16.97c-12.843,12.843-12.843,33.74,0,46.583   c6.221,6.221,14.493,9.647,23.291,9.647c8.799,0,17.071-3.426,23.293-9.647L307.676,407.726z" fill="#a3e175"/><path d="M424.697,144.659l-24.689,24.689c12.891,12.892,19.991,30.057,19.991,48.333   c0,18.277-7.101,35.442-19.992,48.334c-1.436,1.435-3.354,2.197-5.306,2.197c-0.966,0-1.94-0.187-2.868-0.571   c-2.803-1.161-4.63-3.896-4.63-6.929c0-2.226,0.97-4.236,2.51-5.619c9.861-10.022,15.286-23.291,15.286-37.412   c0-14.27-5.54-27.667-15.598-37.726l-11.286,11.287c7.062,7.062,10.951,16.452,10.951,26.44c0,9.988-3.89,19.378-10.952,26.44   l-55.961,55.961l18.464,18.464c2.929,2.929,2.929,7.678,0,10.606c-1.465,1.464-3.385,2.197-5.304,2.197s-3.839-0.732-5.304-2.197   l-18.463-18.463l-39.846,39.846l46.583,46.583l39.846-39.847l-6.906-6.906c-2.93-2.929-2.93-7.677-0.001-10.606   c2.93-2.929,7.679-2.93,10.606,0l6.907,6.906l55.96-55.961C464.96,250.44,464.961,184.925,424.697,144.659z" fill="#a3e175"/><path d="M389.399,179.953c-2.929-2.929-2.929-7.678,0-10.606c2.93-2.929,7.678-2.929,10.607,0   c0.001,0.001,24.69-24.688,24.69-24.688c-19.507-19.507-45.44-30.249-73.025-30.249s-53.519,10.742-73.023,30.248L144.657,278.647   c-7.063,7.063-16.453,10.953-26.441,10.953s-19.379-3.89-26.441-10.953c-0.003-0.003-24.692,24.686-24.692,24.686   c2.932,2.933,2.932,7.682,0.004,10.61c-1.465,1.464-3.385,2.197-5.304,2.197c-1.92,0-3.839-0.732-5.304-2.197   c-0.003-0.003-11.29,11.283-11.29,11.283c19.509,19.509,45.442,30.252,73.027,30.252s53.519-10.742,73.023-30.248L325.23,191.24   c7.063-7.063,16.453-10.952,26.441-10.952s19.379,3.89,26.441,10.952C378.115,191.241,389.401,179.955,389.399,179.953z" fill="#ec6a65"/><path d="M56.479,190.47c2.931-2.929,7.679-2.929,10.607,0c2.929,2.929,2.929,7.678,0,10.606   c-28.193,28.192-28.194,74.063-0.004,102.257l24.689-24.689c-7.061-7.062-10.949-16.451-10.949-26.438   c0-9.988,3.89-19.378,10.952-26.44l106.83-106.83l-18.464-18.464c-2.929-2.929-2.929-7.678,0-10.606   c2.93-2.929,7.678-2.929,10.607,0l18.463,18.463l16.554-16.554c12.843-12.843,12.843-33.74,0-46.583   c-6.221-6.221-14.493-9.647-23.291-9.647c-8.799,0-17.07,3.426-23.291,9.647l-16.555,16.555l6.906,6.906   c2.93,2.929,2.93,7.677,0.001,10.606c-1.465,1.464-3.385,2.197-5.304,2.197s-3.839-0.732-5.303-2.197l-6.906-6.906l-106.83,106.83   C4.928,219.447,4.927,284.961,45.188,325.227l11.287-11.287C22.437,279.898,22.438,224.51,56.479,190.47z" fill="#03e6ff"/><path d="M435.303,134.05c-22.339-22.338-52.039-34.641-83.631-34.641s-61.292,12.303-83.631,34.641   L134.05,268.041c-4.229,4.229-9.853,6.559-15.834,6.559s-11.604-2.33-15.834-6.559c-8.731-8.731-8.731-22.938,0-31.668   l133.991-133.991c18.69-18.691,18.69-49.105,0-67.796c-9.056-9.055-21.094-14.041-33.898-14.041   c-12.806,0-24.844,4.986-33.898,14.041L146.722,56.44c-0.008,0.008-112.137,112.137-112.137,112.137   c-46.113,46.114-46.113,121.147,0,167.261c22.339,22.338,52.039,34.641,83.631,34.641s61.292-12.303,83.631-34.641l133.991-133.991   c4.229-4.229,9.853-6.559,15.834-6.559s11.604,2.329,15.834,6.559s6.56,9.853,6.56,15.834c0,5.981-2.33,11.604-6.56,15.834   L233.515,367.506c-18.69,18.691-18.69,49.104,0,67.796c9.056,9.055,21.094,14.041,33.898,14.041   c12.806,0,24.844-4.986,33.899-14.041l72.724-72.724c0.005-0.005,61.266-61.267,61.266-61.267   C481.416,255.198,481.416,180.165,435.303,134.05z M244.122,424.696c-12.843-12.843-12.843-33.74,0-46.583l16.97-16.97   l46.583,46.583l-16.97,16.97c-6.222,6.221-14.494,9.647-23.293,9.647C258.615,434.343,250.343,430.917,244.122,424.696z    M368.735,346.666l-6.907-6.906c-2.928-2.93-7.677-2.929-10.606,0c-2.929,2.929-2.929,7.678,0.001,10.606l6.906,6.906   l-39.846,39.847l-46.583-46.583l39.846-39.846l18.463,18.463c1.465,1.464,3.385,2.197,5.304,2.197s3.839-0.732,5.304-2.197   c2.929-2.929,2.929-7.678,0-10.606l-18.464-18.464l55.961-55.961c7.063-7.063,10.952-16.453,10.952-26.44   c0-9.988-3.889-19.377-10.951-26.44c-7.064-7.064-16.454-10.953-26.443-10.953s-19.379,3.89-26.441,10.952L191.239,325.231   c-19.505,19.505-45.438,30.248-73.023,30.248s-53.519-10.742-73.023-30.248c-40.266-40.27-40.264-105.784,0-146.048l106.83-106.83   l6.906,6.906c1.464,1.465,3.384,2.197,5.303,2.197s3.839-0.732,5.304-2.197c2.929-2.929,2.929-7.678-0.001-10.606l-6.906-6.906   l16.555-16.555c6.221-6.221,14.492-9.647,23.291-9.647c8.798,0,17.07,3.426,23.291,9.647c12.843,12.843,12.843,33.74,0,46.583   l-16.554,16.554l-18.463-18.463c-2.93-2.929-7.678-2.929-10.607,0c-2.929,2.929-2.929,7.678,0,10.606l18.464,18.464l-106.83,106.83   c-7.063,7.063-10.952,16.453-10.952,26.44c0,9.987,3.888,19.375,10.949,26.438c7.066,7.066,16.456,10.956,26.445,10.956   s19.379-3.89,26.441-10.953l133.991-133.991c19.505-19.505,45.438-30.248,73.023-30.248s53.519,10.742,73.023,30.248   c40.266,40.268,40.265,105.783,0,146.048L368.735,346.666z" fill="#3d2a20"/><path d="M67.086,201.076c2.929-2.929,2.929-7.678,0-10.606c-2.929-2.929-7.677-2.929-10.607,0   c-34.041,34.04-34.042,89.428-0.003,123.471c1.468,1.468,3.387,2.2,5.307,2.2c1.919,0,3.839-0.732,5.304-2.197   c2.929-2.929,2.929-7.678,0-10.606C38.892,275.139,38.893,229.268,67.086,201.076z" fill="#ffffff"/><path d="M389.399,169.347c-2.929,2.929-2.929,7.678,0,10.606c10.06,10.061,15.6,23.458,15.6,37.728   c0,14.121-5.425,27.389-15.286,37.412c-1.54,1.383-2.51,3.393-2.51,5.619c0,3.033,1.827,5.768,4.63,6.929   c0.928,0.384,1.902,0.571,2.868,0.571c1.952,0,3.87-0.762,5.306-2.197c12.892-12.892,19.992-30.057,19.992-48.334   c0-18.276-7.1-35.441-19.991-48.333C397.077,166.418,392.329,166.418,389.399,169.347z" fill="#ffffff"/></g><g transform="matrix(0.19148936867713928 0 0 0.19148936867713928 305 305)" id="L1_35"><path d="M235,15c-94.056,0-170.575,98.691-170.575,220S140.944,455,235,455s170.575-98.691,170.575-220   S329.056,15,235,15z M309.108,100.398c9.189-3.729,17.847-7.714,26.467-12.182c3.674-1.907,8.203-0.471,10.109,3.207   c1.906,3.677,0.471,8.204-3.207,10.109c-9.035,4.684-18.105,8.859-27.729,12.764c-0.924,0.375-1.879,0.553-2.817,0.553   c-2.963,0-5.77-1.768-6.952-4.682C303.422,106.33,305.271,101.956,309.108,100.398z M124.583,92.148   c38.316-20.36,74.038-29.37,108.583-38.083c15.535-3.919,31.599-7.971,47.567-12.994c3.955-1.244,8.162,0.953,9.405,4.903   c1.243,3.951-0.952,8.162-4.903,9.405c-16.383,5.154-32.66,9.26-48.4,13.229c-35.229,8.886-68.503,17.278-105.212,36.785   c-1.121,0.596-2.326,0.879-3.513,0.879c-2.685,0-5.281-1.446-6.629-3.982C119.535,98.633,120.925,94.092,124.583,92.148z    M86.142,185.521c53.694-38.451,101.139-50.418,147.021-61.991c15.756-3.974,32.048-8.083,48.251-13.209   c3.953-1.251,8.165,0.94,9.413,4.888c1.25,3.949-0.938,8.164-4.888,9.413c-16.628,5.261-33.141,9.426-49.108,13.453   c-46.578,11.748-90.572,22.845-141.957,59.642c-1.323,0.947-2.849,1.403-4.36,1.403c-2.337,0-4.64-1.089-6.104-3.135   C82,192.618,82.774,187.933,86.142,185.521z M88.369,270.134c-2.319,0-4.604-1.071-6.072-3.09   c-2.436-3.351-1.695-8.041,1.655-10.477c54.609-39.711,102.703-51.841,149.214-63.572c43.095-10.869,83.8-21.136,130.447-51.744   c3.462-2.271,8.112-1.308,10.385,2.156c2.272,3.463,1.308,8.112-2.156,10.385c-48.759,31.994-92.604,43.053-135.007,53.748   c-47.208,11.906-91.796,23.152-144.061,61.158C91.442,269.667,89.898,270.134,88.369,270.134z M102.279,329.98   c-2.442,0-4.837-1.191-6.277-3.387c-2.272-3.463-1.307-8.112,2.156-10.385c23.783-15.606,47.85-27.346,75.74-36.944   c3.917-1.35,8.185,0.734,9.533,4.651c1.348,3.916-0.734,8.185-4.651,9.532c-26.678,9.182-49.681,20.398-72.392,35.302   C105.119,329.582,103.691,329.98,102.279,329.98z M345.429,377.846c-38.32,20.364-74.045,29.375-108.593,38.089   c-15.537,3.919-31.602,7.971-47.572,12.995c-0.749,0.235-1.508,0.348-2.253,0.348c-3.188,0-6.145-2.049-7.152-5.251   c-1.243-3.951,0.952-8.162,4.903-9.405c16.384-5.154,32.663-9.26,48.405-13.23c35.231-8.887,68.509-17.28,105.223-36.791   c3.66-1.943,8.199-0.553,10.143,3.104C350.476,371.36,349.087,375.901,345.429,377.846z M383.856,284.479   c-53.694,38.451-101.14,50.418-147.021,61.99c-34.336,8.66-66.768,16.84-102.411,35.314c-1.103,0.571-2.283,0.843-3.445,0.843   c-2.713,0-5.331-1.477-6.665-4.051c-1.906-3.678-0.47-8.204,3.208-10.11c37.188-19.274,71.989-28.052,105.644-36.54   c46.578-11.748,90.572-22.845,141.958-59.642c3.366-2.411,8.053-1.638,10.464,1.731C388,277.383,387.225,282.068,383.856,284.479z    M386.049,213.433c-54.608,39.71-102.702,51.841-149.213,63.572c-9.741,2.456-19.813,4.997-29.744,7.747   c-0.669,0.185-1.343,0.273-2.006,0.273c-3.288,0-6.304-2.178-7.224-5.501c-1.105-3.991,1.235-8.124,5.227-9.229   c10.098-2.796,20.255-5.357,30.079-7.835c47.207-11.906,91.795-23.152,144.059-61.158c3.353-2.436,8.041-1.695,10.477,1.654   C390.14,206.307,389.398,210.997,386.049,213.433z" fill="#ffcb59"/><path d="M366.824,69.511C331.737,24.686,284.922,0,235,0s-96.738,24.686-131.824,69.511   C68.514,113.793,49.425,172.564,49.425,235s19.089,121.207,53.751,165.489C138.262,445.314,185.078,470,235,470   s96.737-24.686,131.824-69.511c34.662-44.282,53.751-103.054,53.751-165.489S401.486,113.793,366.824,69.511z M235,455   c-94.056,0-170.575-98.691-170.575-220S140.944,15,235,15s170.575,98.691,170.575,220S329.056,455,235,455z" fill="#3d2a20"/><path d="M128.108,106.273c1.187,0,2.392-0.283,3.513-0.879c36.709-19.507,69.984-27.899,105.212-36.785   c15.74-3.97,32.018-8.075,48.4-13.229c3.951-1.243,6.146-5.454,4.903-9.405c-1.243-3.95-5.45-6.147-9.405-4.903   c-15.969,5.023-32.032,9.075-47.567,12.994c-34.545,8.713-70.266,17.723-108.583,38.083c-3.658,1.943-5.047,6.484-3.104,10.143   C122.827,104.827,125.423,106.273,128.108,106.273z" fill="#3d2a20"/><path d="M90.515,199.12c1.512,0,3.038-0.456,4.36-1.403c51.384-36.797,95.379-47.894,141.957-59.642   c15.968-4.027,32.48-8.192,49.108-13.453c3.949-1.249,6.138-5.464,4.888-9.413c-1.248-3.947-5.46-6.139-9.413-4.888   c-16.203,5.126-32.495,9.235-48.251,13.209c-45.882,11.573-93.327,23.54-147.021,61.991c-3.368,2.411-4.143,7.097-1.731,10.464   C85.875,198.031,88.178,199.12,90.515,199.12z" fill="#3d2a20"/><path d="M311.932,114.85c0.938,0,1.894-0.178,2.817-0.553c9.623-3.904,18.693-8.08,27.729-12.764   c3.678-1.905,5.113-6.433,3.207-10.109c-1.906-3.678-6.436-5.114-10.109-3.207c-8.62,4.468-17.277,8.452-26.467,12.182   c-3.838,1.558-5.687,5.932-4.129,9.77C306.162,113.082,308.969,114.85,311.932,114.85z" fill="#3d2a20"/><path d="M375.124,272.284c-51.386,36.797-95.38,47.894-141.958,59.642   c-33.655,8.488-68.456,17.266-105.644,36.54c-3.678,1.906-5.114,6.433-3.208,10.11c1.334,2.574,3.952,4.051,6.665,4.051   c1.162,0,2.342-0.271,3.445-0.843c35.643-18.475,68.075-26.654,102.411-35.314c45.882-11.572,93.327-23.539,147.021-61.99   c3.368-2.411,4.144-7.097,1.731-10.464C383.177,270.646,378.49,269.873,375.124,272.284z" fill="#3d2a20"/><path d="M338.39,364.6c-36.714,19.511-69.991,27.904-105.223,36.791   c-15.742,3.971-32.021,8.076-48.405,13.23c-3.951,1.243-6.146,5.454-4.903,9.405c1.007,3.202,3.964,5.251,7.152,5.251   c0.745,0,1.504-0.112,2.253-0.348c15.97-5.024,32.035-9.076,47.572-12.995c34.548-8.714,70.272-17.725,108.593-38.089   c3.658-1.944,5.047-6.485,3.104-10.143C346.589,364.047,342.05,362.656,338.39,364.6z" fill="#3d2a20"/><path d="M371.842,153.792c3.464-2.272,4.429-6.922,2.156-10.385c-2.272-3.464-6.923-4.428-10.385-2.156   c-46.647,30.608-87.353,40.875-130.447,51.744c-46.511,11.731-94.605,23.861-149.214,63.572c-3.35,2.436-4.091,7.126-1.655,10.477   c1.468,2.019,3.753,3.09,6.072,3.09c1.529,0,3.073-0.467,4.405-1.436c52.265-38.006,96.854-49.252,144.061-61.158   C279.237,196.845,323.083,185.786,371.842,153.792z" fill="#3d2a20"/><path d="M183.43,283.916c-1.348-3.917-5.615-6.001-9.533-4.651c-27.89,9.599-51.957,21.338-75.74,36.944   c-3.463,2.272-4.428,6.922-2.156,10.385c1.44,2.195,3.835,3.387,6.277,3.387c1.412,0,2.84-0.398,4.108-1.23   c22.711-14.903,45.714-26.12,72.392-35.302C182.696,292.101,184.778,287.832,183.43,283.916z" fill="#3d2a20"/><path d="M387.703,202.956c-2.436-3.35-7.124-4.09-10.477-1.654c-52.264,38.006-96.853,49.252-144.059,61.158   c-9.823,2.478-19.98,5.039-30.079,7.835c-3.992,1.105-6.332,5.238-5.227,9.229c0.92,3.323,3.936,5.501,7.224,5.501   c0.663,0,1.336-0.089,2.006-0.273c9.931-2.75,20.003-5.291,29.744-7.747c46.511-11.731,94.604-23.862,149.213-63.572   C389.398,210.997,390.14,206.307,387.703,202.956z" fill="#3d2a20"/></g><g transform="matrix(0.1489361673593521 0 0 0.1489361673593521 140 140)" id="L1_36"><path d="M107.71,377.8c0-6.415,2.498-12.445,7.034-16.98l20.374-20.374c-0.978-0.89-1.926-1.794-2.842-2.709   c-6.696-6.696-11.755-14.061-15.51-20.8L16.044,417.658c1.899,5.204,6.138,14.703,13.873,22.438   c7.731,7.731,17.226,11.97,22.438,13.872l60.864-60.865C109.653,388.807,107.71,383.453,107.71,377.8z M58.5,436.499h-4.431   c-4.142,0-7.5-3.357-7.5-7.5s3.358-7.5,7.5-7.5H58.5c4.142,0,7.5,3.357,7.5,7.5S62.642,436.499,58.5,436.499z M84.044,387.128   c-1.464,1.465-3.384,2.197-5.304,2.197s-3.838-0.732-5.303-2.196l-3.133-3.133c-2.929-2.929-2.93-7.678-0.001-10.606   c2.929-2.93,7.678-2.929,10.606-0.001l3.133,3.133C86.972,379.45,86.972,384.199,84.044,387.128z" fill="#d6b8a4"/><path d="M374.476,66.22c-1.464,1.464-3.384,2.196-5.303,2.196s-3.839-0.732-5.303-2.196l-6.168-6.168   l-27.6,27.6c2.483,1.222,4.195,3.77,4.195,6.725c0,4.143-3.358,7.5-7.5,7.5h-10.92l-46.163,46.163v10.92c0,4.143-3.358,7.5-7.5,7.5   c-2.954,0-5.503-1.713-6.725-4.195l-96.066,96.066l7.56,7.56c2.929,2.93,2.929,7.678,0,10.607   c-1.464,1.464-3.384,2.196-5.303,2.196s-3.839-0.732-5.303-2.196l-7.56-7.56l-25.658,25.658   c2.323,6.764,8.226,21.035,19.724,32.533c2.368,2.368,5.014,4.651,7.865,6.787c1.741,1.305,2.83,3.3,2.984,5.469   c0.155,2.17-0.64,4.3-2.178,5.838l-26.204,26.204c-1.703,1.702-2.64,3.965-2.64,6.373c0,2.407,0.938,4.671,2.64,6.373   c1.703,1.703,3.966,2.641,6.374,2.641s4.671-0.938,6.373-2.64l44.469-44.469c-2.773-1.101-4.736-3.802-4.736-6.968   c0-4.143,3.358-7.5,7.5-7.5h11.704l179.796-179.796c-2.773-1.101-4.736-3.802-4.736-6.968c0-4.143,3.358-7.5,7.5-7.5h11.704   l42.765-42.765V77.603c0-4.143,3.358-7.5,7.5-7.5c2.703,0,5.065,1.435,6.385,3.58c10.513-14.441,9.262-34.839-3.758-47.86   C437.21,18.844,427.931,15,418.06,15c-9.87,0-19.15,3.844-26.129,10.823l-23.622,23.622l6.167,6.167   C377.405,58.542,377.405,63.29,374.476,66.22z M199.552,275.077c0,4.143-3.358,7.5-7.5,7.5s-7.5-3.357-7.5-7.5v-22.869   c0-4.143,3.358-7.5,7.5-7.5s7.5,3.357,7.5,7.5V275.077z M247.056,243.772c-1.464,1.464-3.384,2.196-5.303,2.196   s-3.839-0.732-5.303-2.196l-16.171-16.171c-2.929-2.93-2.929-7.678,0-10.607c2.929-2.928,7.678-2.928,10.606,0l16.171,16.171   C249.985,236.095,249.985,240.843,247.056,243.772z M282.705,226.445h-22.87c-4.142,0-7.5-3.357-7.5-7.5s3.358-7.5,7.5-7.5h22.87   c4.142,0,7.5,3.357,7.5,7.5S286.847,226.445,282.705,226.445z M340.358,153.795l-16.171,16.172   c-1.464,1.464-3.384,2.196-5.303,2.196s-3.839-0.732-5.303-2.196c-2.929-2.93-2.929-7.678,0-10.607l16.171-16.172   c2.929-2.928,7.678-2.928,10.606,0C343.287,146.117,343.287,150.865,340.358,153.795z M375.55,113.005c0,4.143-3.358,7.5-7.5,7.5   s-7.5-3.357-7.5-7.5V90.136c0-4.143,3.358-7.5,7.5-7.5s7.5,3.357,7.5,7.5V113.005z M398.393,38.367h22.869   c4.142,0,7.5,3.357,7.5,7.5s-3.358,7.5-7.5,7.5h-22.869c-4.142,0-7.5-3.357-7.5-7.5S394.251,38.367,398.393,38.367z" fill="#6b4833"/><path d="M434.062,100.472V88.208l-42.765,42.765h11.166c2.725,0,5.103,1.458,6.417,3.632l28.161-28.16   C435.234,105.075,434.062,102.913,434.062,100.472z" fill="#3d2a20"/><path d="M159.423,258.331l96.066-96.066c-0.491-0.998-0.775-2.117-0.775-3.305v-17.134l-106.29,106.29   c0.867,0.366,1.681,0.897,2.387,1.603L159.423,258.331z" fill="#3d2a20"/><path d="M269.714,136.091v11.949l46.163-46.163h-11.949c-2.522,0-4.748-1.249-6.107-3.157l-31.263,31.263   C268.466,131.343,269.714,133.569,269.714,136.091z" fill="#3d2a20"/><path d="M454.796,15.216C444.984,5.404,431.937,0,418.06,0s-26.923,5.404-36.736,15.216l-23.659,23.659   c0.221,0.176,0.436,0.362,0.64,0.566l10.004,10.004l23.622-23.622C398.91,18.844,408.19,15,418.06,15   c9.871,0,19.15,3.844,26.129,10.822c13.02,13.021,14.27,33.419,3.758,47.86c0.702,1.142,1.115,2.481,1.115,3.92v16.82l5.734-5.734   C475.052,68.433,475.052,35.473,454.796,15.216z" fill="#3d2a20"/><path d="M326.797,86.877c1.188,0,2.307,0.283,3.305,0.775l27.6-27.6l-10.004-10.003   c-0.204-0.204-0.391-0.419-0.567-0.64l-37.468,37.468H326.797z" fill="#3d2a20"/><path d="M185.329,340.237c-0.977,0-1.908-0.193-2.764-0.532l-44.469,44.469   c-1.702,1.702-3.965,2.64-6.373,2.64s-4.671-0.938-6.374-2.641c-1.703-1.702-2.64-3.966-2.64-6.373c0-2.408,0.938-4.671,2.64-6.373   l26.204-26.204c1.538-1.538,2.333-3.668,2.178-5.838c-0.155-2.169-1.244-4.164-2.984-5.469c-2.852-2.136-5.498-4.419-7.865-6.787   c-11.499-11.498-17.401-25.77-19.724-32.533l25.658-25.658l-8.611-8.611c-0.706-0.707-1.238-1.52-1.604-2.388l-29.239,29.239   c-1.855,1.855-2.606,4.546-1.98,7.095c0.086,0.35,0.876,3.475,2.652,8.181L2.209,410.279c-1.855,1.855-2.606,4.546-1.98,7.095   c0.19,0.771,4.809,19.057,19.081,33.329c14.271,14.271,32.557,18.891,33.329,19.08c0.593,0.146,1.194,0.217,1.791,0.217   c1.965,0,3.88-0.773,5.303-2.196l66.601-66.601c1.748,0.399,3.552,0.611,5.39,0.611c6.415,0,12.445-2.498,16.98-7.033   l54.543-54.543H185.329z M29.917,440.096c-7.735-7.734-11.973-17.233-13.873-22.438l100.722-100.722   c3.755,6.739,8.815,14.104,15.51,20.8c0.916,0.915,1.864,1.819,2.842,2.709l-20.374,20.374c-4.536,4.535-7.034,10.565-7.034,16.98   c0,5.653,1.943,11.007,5.509,15.303l-60.864,60.865C47.143,452.065,37.648,447.827,29.917,440.096z" fill="#3d2a20"/><path d="M379.593,145.974c-0.977,0-1.908-0.193-2.764-0.532L197.033,325.237h11.165   c2.725,0,5.103,1.458,6.417,3.632l182.896-182.895H379.593z" fill="#3d2a20"/><path d="M208.198,325.237h-11.165h-11.704c-4.142,0-7.5,3.357-7.5,7.5c0,3.165,1.963,5.867,4.736,6.968   c0.856,0.34,1.787,0.532,2.764,0.532h17.918h4.952c4.142,0,7.5-3.357,7.5-7.5c0-1.417-0.4-2.738-1.083-3.868   C213.302,326.695,210.923,325.237,208.198,325.237z" fill="#ffcb59"/><path d="M230.884,216.994c-2.929-2.928-7.678-2.928-10.606,0c-2.929,2.93-2.929,7.678,0,10.607   l16.171,16.171c1.464,1.464,3.384,2.196,5.303,2.196s3.839-0.732,5.303-2.196c2.929-2.93,2.929-7.678,0-10.607L230.884,216.994z" fill="#ffcb59"/><path d="M254.714,158.96c0,1.188,0.284,2.307,0.775,3.305c1.223,2.483,3.771,4.195,6.725,4.195   c4.142,0,7.5-3.357,7.5-7.5v-10.92v-11.949c0-2.522-1.249-4.748-3.157-6.108c-1.226-0.873-2.722-1.392-4.343-1.392   c-4.142,0-7.5,3.357-7.5,7.5v5.735V158.96z" fill="#03e6ff"/><path d="M303.928,101.877h11.949h10.92c4.142,0,7.5-3.357,7.5-7.5c0-2.955-1.713-5.503-4.195-6.725   c-0.998-0.491-2.117-0.775-3.305-0.775h-17.134h-5.735c-4.142,0-7.5,3.357-7.5,7.5c0,1.62,0.519,3.117,1.393,4.343   C299.18,100.628,301.406,101.877,303.928,101.877z" fill="#ffcb59"/><path d="M329.752,143.188l-16.171,16.172c-2.929,2.93-2.929,7.678,0,10.607   c1.464,1.464,3.384,2.196,5.303,2.196s3.839-0.732,5.303-2.196l16.171-16.172c2.929-2.93,2.929-7.678,0-10.607   C337.429,140.26,332.68,140.26,329.752,143.188z" fill="#03e6ff"/><path d="M282.705,211.445h-22.87c-4.142,0-7.5,3.357-7.5,7.5s3.358,7.5,7.5,7.5h22.87   c4.142,0,7.5-3.357,7.5-7.5S286.847,211.445,282.705,211.445z" fill="#e7453f"/><path d="M402.463,130.974h-11.166h-11.704c-4.142,0-7.5,3.357-7.5,7.5c0,3.165,1.963,5.867,4.736,6.968   c0.856,0.34,1.787,0.532,2.764,0.532h17.918h4.952c4.142,0,7.5-3.357,7.5-7.5c0-1.417-0.4-2.738-1.083-3.868   C407.566,132.432,405.187,130.974,402.463,130.974z" fill="#ec6a65"/><path d="M357.702,60.052l6.168,6.168c1.464,1.464,3.384,2.196,5.303,2.196s3.839-0.732,5.303-2.196   c2.929-2.93,2.929-7.678,0-10.607l-6.167-6.167l-10.004-10.004c-0.204-0.204-0.419-0.391-0.64-0.566   c-2.944-2.344-7.242-2.157-9.967,0.566c-2.725,2.725-2.911,7.022-0.567,9.967c0.176,0.221,0.362,0.436,0.567,0.64L357.702,60.052z" fill="#03e6ff"/><path d="M449.062,77.603c0-1.439-0.412-2.778-1.115-3.92c-1.32-2.145-3.682-3.58-6.385-3.58   c-4.142,0-7.5,3.357-7.5,7.5v10.606v12.263c0,2.442,1.172,4.604,2.978,5.973c1.258,0.954,2.822,1.527,4.522,1.527   c4.142,0,7.5-3.357,7.5-7.5v-6.049V77.603z" fill="#03e6ff"/><path d="M398.393,53.367h22.869c4.142,0,7.5-3.357,7.5-7.5s-3.358-7.5-7.5-7.5h-22.869   c-4.142,0-7.5,3.357-7.5,7.5S394.251,53.367,398.393,53.367z" fill="#ffcb59"/><path d="M368.05,82.636c-4.142,0-7.5,3.357-7.5,7.5v22.869c0,4.143,3.358,7.5,7.5,7.5s7.5-3.357,7.5-7.5   V90.136C375.55,85.993,372.192,82.636,368.05,82.636z" fill="#e7453f"/><path d="M192.052,244.708c-4.142,0-7.5,3.357-7.5,7.5v22.869c0,4.143,3.358,7.5,7.5,7.5s7.5-3.357,7.5-7.5   v-22.869C199.552,248.065,196.194,244.708,192.052,244.708z" fill="#03e6ff"/><path d="M148.816,268.938l7.56,7.56c1.464,1.464,3.384,2.196,5.303,2.196s3.839-0.732,5.303-2.196   c2.929-2.93,2.929-7.678,0-10.607l-7.56-7.56l-8.611-8.611c-0.706-0.706-1.52-1.238-2.387-1.603   c-2.728-1.15-5.997-0.618-8.219,1.603c-2.223,2.223-2.755,5.492-1.604,8.22c0.366,0.867,0.898,1.681,1.604,2.388L148.816,268.938z" fill="#ec6a65"/><path d="M80.909,373.389c-2.929-2.928-7.678-2.929-10.606,0.001c-2.929,2.929-2.928,7.678,0.001,10.606   l3.133,3.133c1.464,1.464,3.383,2.196,5.303,2.196s3.839-0.732,5.304-2.197c2.929-2.929,2.928-7.678-0.001-10.606L80.909,373.389z" fill="#ffffff"/><path d="M58.5,421.499h-4.431c-4.142,0-7.5,3.357-7.5,7.5s3.358,7.5,7.5,7.5H58.5c4.142,0,7.5-3.357,7.5-7.5   S62.642,421.499,58.5,421.499z" fill="#ffffff"/></g></defs><g fi:class="KUsePattern"><pattern id="pattern_L1_32" width="350" height="350" patternUnits="userSpaceOnUse"><use xlink:href="#L1_32" x="-350" y="-350"/><use xlink:href="#L1_32" x="0" y="-350"/><use xlink:href="#L1_32" x="350" y="-350"/><use xlink:href="#L1_32" x="-350" y="0"/><use xlink:href="#L1_32" x="0" y="0"/><use xlink:href="#L1_32" x="350" y="0"/><use xlink:href="#L1_32" x="-350" y="350"/><use xlink:href="#L1_32" x="0" y="350"/><use xlink:href="#L1_32" x="350" y="350"/></pattern><rect x="0" y="0" width="100%" height="100%" fill="url(#pattern_L1_32)"/></g><g fi:class="KUsePattern"><pattern id="pattern_L1_33" width="350" height="350" patternUnits="userSpaceOnUse"><use xlink:href="#L1_33" x="-350" y="-350"/><use xlink:href="#L1_33" x="0" y="-350"/><use xlink:href="#L1_33" x="350" y="-350"/><use xlink:href="#L1_33" x="-350" y="0"/><use xlink:href="#L1_33" x="0" y="0"/><use xlink:href="#L1_33" x="350" y="0"/><use xlink:href="#L1_33" x="-350" y="350"/><use xlink:href="#L1_33" x="0" y="350"/><use xlink:href="#L1_33" x="350" y="350"/></pattern><rect x="0" y="0" width="100%" height="100%" fill="url(#pattern_L1_33)"/></g><g fi:class="KUsePattern"><pattern id="pattern_L1_34" width="350" height="350" patternUnits="userSpaceOnUse"><use xlink:href="#L1_34" x="-350" y="-350"/><use xlink:href="#L1_34" x="0" y="-350"/><use xlink:href="#L1_34" x="350" y="-350"/><use xlink:href="#L1_34" x="-350" y="0"/><use xlink:href="#L1_34" x="0" y="0"/><use xlink:href="#L1_34" x="350" y="0"/><use xlink:href="#L1_34" x="-350" y="350"/><use xlink:href="#L1_34" x="0" y="350"/><use xlink:href="#L1_34" x="350" y="350"/></pattern><rect x="0" y="0" width="100%" height="100%" fill="url(#pattern_L1_34)"/></g><g fi:class="KUsePattern"><pattern id="pattern_L1_35" width="350" height="350" patternUnits="userSpaceOnUse"><use xlink:href="#L1_35" x="-350" y="-350"/><use xlink:href="#L1_35" x="0" y="-350"/><use xlink:href="#L1_35" x="350" y="-350"/><use xlink:href="#L1_35" x="-350" y="0"/><use xlink:href="#L1_35" x="0" y="0"/><use xlink:href="#L1_35" x="350" y="0"/><use xlink:href="#L1_35" x="-350" y="350"/><use xlink:href="#L1_35" x="0" y="350"/><use xlink:href="#L1_35" x="350" y="350"/></pattern><rect x="0" y="0" width="100%" height="100%" fill="url(#pattern_L1_35)"/></g><g fi:class="KUsePattern"><pattern id="pattern_L1_36" width="350" height="350" patternUnits="userSpaceOnUse"><use xlink:href="#L1_36" x="-350" y="-350"/><use xlink:href="#L1_36" x="0" y="-350"/><use xlink:href="#L1_36" x="350" y="-350"/><use xlink:href="#L1_36" x="-350" y="0"/><use xlink:href="#L1_36" x="0" y="0"/><use xlink:href="#L1_36" x="350" y="0"/><use xlink:href="#L1_36" x="-350" y="350"/><use xlink:href="#L1_36" x="0" y="350"/><use xlink:href="#L1_36" x="350" y="350"/></pattern><rect x="0" y="0" width="100%" height="100%" fill="url(#pattern_L1_36)"/></g></svg>