<svg xmlns="http://www.w3.org/2000/svg" xmlns:xlink="http://www.w3.org/1999/xlink" xmlns:fi="http://pattern.flaticon.com/" x="0" y="0" width="700" height="350" viewBox="0 0 700 350"><rect x="0px" y="0px" width="100%" height="100%" opacity="1" fill="#baeff5"/><defs><g transform="matrix(0.11718795448541641 0 0 0.11718795448541641 94 297.00000082969984)" id="L1_96"><path d="M335.373,76.814c-6.721,0-105.719,0-112.48,0h-20.728c-24.811,0-45.396,20.175-45.396,45.396  c0,19.151,0,159.122,0,177.604v19.829c0,14.396,0,122.24,0,135.871c0,25.019,20.281,45.3,45.3,45.3h1.273h130.854h1.273  c25.019,0,45.3-20.281,45.3-45.3c0-88.195,0-176.328,0-263.995V122.21C380.769,97.001,360.197,76.814,335.373,76.814z" fill="#efefef"/><path d="M182.853,455.514c0-2.193,0-326.455,0-333.303c0-25.132,20.493-45.396,45.396-45.396h-5.356h-20.728  c-24.811,0-45.396,20.175-45.396,45.396c0,19.151,0,159.122,0,177.604v19.829c0,14.396,0,122.24,0,135.871  c0,25.019,20.281,45.3,45.3,45.3h1.273h24.81C203.134,500.814,182.853,480.532,182.853,455.514z" fill="#dddddd"/><path d="M355.769,455.691c0,10.766-8.421,19.462-18.921,20.081h0.01c0,0-1.759,0.042-2.662,0.042H203.342  c-0.903,0-1.791-0.065-2.662-0.18l0.004,0.048c-10.224-1.118-17.914-9.748-17.914-19.991c0-136.609,0-269.294,0-332.719  c0-11.311,9.35-20.158,20.094-20.158h12.98c3.273,0,5.926,2.653,5.926,5.926v6.38c0,6.432,5.262,11.694,11.694,11.694  c36.263,0,18.104,0,71.36,0h0.103c0.983-0.215,7.039,1.141,11.443-4.641c1.013-1.309,1.815-2.941,2.201-4.64  c-0.014-0.02-0.027-0.04-0.042-0.06c0.157-0.761,0.24-1.548,0.24-2.354v-6.38c0-3.273,2.653-5.926,5.926-5.926h10.98  c10.772,0,20.094,8.864,20.094,20.158v63.388C355.769,276.242,355.769,366.065,355.769,455.691z" fill="#3997ee"/><path d="M224.684,475.682c-10.224-1.118-17.914-9.748-17.914-19.991c0-136.609,0-269.294,0-332.719  c0-8.546,5.357-15.822,12.903-18.751c-1.033-0.876-2.368-1.407-3.829-1.407h-12.98c-10.772,0-20.094,8.864-20.094,20.158  c0,71.504,0,221.368,0,332.719c0,10.227,7.681,18.872,17.914,19.991l-0.004-0.048c0.872,0.116,1.759,0.18,2.662,0.18h24  c-0.903,0-1.791-0.065-2.662-0.18L224.684,475.682z" fill="#1e88d8"/><path d="M504.503,106.954c0,8.218-9.879,15.027-11.905,22.606c-2.096,7.842,2.993,18.667-0.979,25.532  c-4.029,6.965-15.986,7.944-21.638,13.596s-6.632,17.609-13.596,21.638c-6.866,3.972-17.691-1.117-25.532,0.979  c-7.579,2.025-14.388,11.905-22.606,11.905s-15.027-9.879-22.606-11.905c-7.842-2.096-18.667,2.993-25.532-0.979  c-6.964-4.029-7.944-15.986-13.596-21.639c-5.652-5.652-17.609-6.632-21.638-13.597c-3.972-6.865,1.117-17.69-0.979-25.532  c-2.026-7.579-11.905-14.388-11.905-22.606s9.879-15.027,11.905-22.606c2.096-7.842-2.993-18.667,0.979-25.533  c4.03-6.964,15.986-7.944,21.639-13.596c5.652-5.652,6.632-17.609,13.596-21.638c6.866-3.972,17.69,1.117,25.532-0.979  c7.579-2.026,14.388-11.905,22.606-11.905s15.027,9.879,22.606,11.905c7.842,2.096,18.667-2.993,25.532,0.979  c6.965,4.03,7.944,15.987,13.596,21.639s17.609,6.632,21.638,13.596c3.972,6.866-1.117,17.691,0.979,25.532  C494.624,91.928,504.503,98.737,504.503,106.954z" fill="#32cc65"/><path d="M361.835,133.75C340.726,97.187,346.35,52.547,372.611,22.4c-4.484-0.51-8.849-0.793-12.276,1.072  c-0.072,0.042-0.145,0.08-0.218,0.122c-0.071,0.041-0.139,0.084-0.21,0.125c-6.775,4.146-7.801,15.907-13.396,21.501  c-5.647,5.647-17.585,6.631-21.626,13.578c-0.009,0.015-0.017,0.031-0.026,0.046c-3.944,6.867,1.127,17.674-0.966,25.505  c-2.026,7.579-11.905,14.388-11.905,22.606c0,8.217,9.879,15.027,11.905,22.606c2.074,7.759-2.873,18.434,0.871,25.308  c0.041,0.071,0.079,0.143,0.12,0.214s0.085,0.14,0.126,0.211c4.147,6.774,15.906,7.8,21.5,13.395  c5.646,5.646,6.631,17.583,13.576,21.625c0.017,0.01,0.033,0.019,0.05,0.028c6.867,3.942,17.672-1.128,25.503,0.965  c7.579,2.026,14.389,11.905,22.606,11.905c8.217,0,15.027-9.879,22.606-11.905c7.759-2.074,18.432,2.872,25.307-0.87  c0.072-0.041,0.144-0.08,0.216-0.121c0.073-0.043,0.145-0.087,0.218-0.13c3.356-2.058,5.308-5.978,7.095-10.1  C424.439,187.771,382.95,170.322,361.835,133.75z" fill="#23b658"/><path d="M292.034,384.814h-45.225c-6.903,0-12.841-5.4-12.948-12.302  c-0.109-6.995,5.529-12.699,12.499-12.699h45.225c6.903,0,12.841,5.4,12.948,12.302C304.641,379.11,299.004,384.814,292.034,384.814  z" fill="#64c4ff"/><path d="M267.791,372.512c-0.109-6.995,5.529-12.699,12.499-12.699h-33.93  c-6.97,0-12.608,5.704-12.499,12.699c0.107,6.902,6.046,12.302,12.948,12.302h33.93  C273.837,384.814,267.898,379.414,267.791,372.512z" fill="#48aef9"/><circle cx="268" cy="268" r="62" fill="#fac149"/><path d="M238.442,286.323c-14.803-25.64-9.198-57.447,11.755-76.658c-4.245,1.337-8.413,3.138-12.428,5.456  c-29.654,17.121-39.814,55.039-22.694,84.694c17.121,29.654,55.039,39.814,84.694,22.693c4.014-2.318,7.658-5.027,10.939-8.035  C283.594,323.012,253.245,311.963,238.442,286.323z" fill="#f8a748"/><path d="M32.566,299.814c-5.634,0-10.317,4.34-10.746,9.957L7.708,494.804  c-0.247,3.242,2.317,6.009,5.568,6.009H195.58c3.258,0,5.827-2.772,5.579-6.021l-14.065-184.411  c-0.455-5.962-5.425-10.568-11.405-10.568H32.566V299.814z" fill="#fc5b6f"/><path d="M50.375,494.805l14.112-185.034c0.428-5.618,5.112-9.957,10.746-9.957H32.566  c-5.634,0-10.317,4.34-10.746,9.957L7.708,494.805c-0.247,3.242,2.317,6.009,5.569,6.009h42.666  C52.692,500.814,50.128,498.047,50.375,494.805z" fill="#f74352"/><path d="M398.046,139.867L398.046,139.867c-3.405,0-6.669-1.352-9.077-3.76l-17.739-17.739  c-5.013-5.013-5.013-13.141,0-18.153s13.141-5.012,18.153,0l8.662,8.663l25.036-25.037c5.013-5.013,13.14-5.013,18.153,0  s5.013,13.14,0,18.153l-34.113,34.113C404.715,138.515,401.45,139.867,398.046,139.867z" fill="#efefef"/><path d="M441.235,83.841c-0.454-0.454-0.941-0.852-1.441-1.224c-0.014,2.882-1.118,5.76-3.317,7.959  l-30.122,30.122c-4.423,4.423-11.604,4.426-16.029,0l-15.663-15.664c-1.501-1.502-2.481-3.323-2.964-5.243  c-0.156,0.141-0.318,0.273-0.468,0.423c-5.013,5.013-5.013,13.14,0,18.153l17.739,17.739c5.009,5.009,13.141,5.012,18.153,0  l34.113-34.113C446.248,96.981,446.248,88.854,441.235,83.841z" fill="#dddddd"/><path d="M276.172,109.984h11.239c4.143,0,7.5-3.357,7.5-7.5s-3.357-7.5-7.5-7.5h-11.239c-4.143,0-7.5,3.357-7.5,7.5  S272.03,109.984,276.172,109.984z"/><path d="M274.578,436.064h-11.24c-4.143,0-7.5,3.357-7.5,7.5s3.357,7.5,7.5,7.5h11.24c4.143,0,7.5-3.357,7.5-7.5  S278.721,436.064,274.578,436.064z"/><path d="M250.507,109.983c4.153,0,7.5-3.399,7.5-7.5c0-3.695-2.692-6.716-6.04-7.351c-4.536-0.941-8.96,2.549-8.96,7.351  C243.007,106.608,246.342,109.983,250.507,109.983z"/><path d="M511.998,106.954c0-11.249-10.708-19.109-12.159-24.542c-1.571-5.88,3.827-17.74-1.733-27.353  c-5.543-9.576-18.764-11.078-22.826-15.143c-4.184-4.184-5.45-17.219-15.144-22.826c-9.61-5.561-21.488-0.163-27.353-1.734  c-5.439-1.453-13.298-12.159-24.543-12.159c-11.254,0-19.105,10.707-24.542,12.159c-5.867,1.573-17.743-3.828-27.352,1.733  c-9.594,5.55-11.067,18.752-15.145,22.826c-4.177,4.18-17.214,5.447-22.827,15.145c-2.743,4.742-2.811,9.932-2.374,14.825H202.545  c-28.942,0-52.8,23.273-52.8,52.801v125.039c-11.066-12.593-27.273-20.564-45.316-20.564c-33.27,0-60.337,27.067-60.337,60.338  v4.915H32.404c-9.498,0-17.502,7.418-18.224,16.887L0.038,494.711c-0.577,7.595,5.44,14.09,13.058,14.09h38.496  c4.143,0,7.5-3.357,7.5-7.5s-3.357-7.5-7.5-7.5h-36.44l13.985-183.36c0.129-1.697,1.565-3.026,3.267-3.026h11.688v22.522  c0,4.142,3.357,7.5,7.5,7.5s7.5-3.358,7.5-7.5v-22.522h90.675v22.522c0,4.142,3.357,7.5,7.5,7.5s7.5-3.358,7.5-7.5v-22.522h11.055  c1.918,0,3.785,1.508,3.948,3.659l13.938,182.728H86.592c-4.143,0-7.5,3.357-7.5,7.5s3.357,7.5,7.5,7.5l0,0h248.779  c29.114,0,52.8-23.687,52.8-52.801v-20.393c0-4.142-3.357-7.5-7.5-7.5s-7.5,3.358-7.5,7.5V456c0,20.844-16.957,37.801-37.8,37.801  h-126.62l-0.037-0.484l-0.733-9.615h127.39c15.329,0,27.701-12.436,27.701-27.702V199.116c3.319,0.497,6.783,0.251,10.099-0.119  v201.61c0,4.143,3.357,7.5,7.5,7.5s7.5-3.357,7.5-7.5V201.036c5.284,3.747,11.64,9.676,20.069,9.676  c11.254,0,19.1-10.705,24.543-12.159c5.879-1.572,17.741,3.825,27.351-1.732c9.596-5.551,11.068-18.75,15.145-22.827  c4.184-4.184,17.219-5.45,22.826-15.144c5.558-9.603,0.165-21.489,1.734-27.352C501.293,126.053,511.998,118.2,511.998,106.954z   M149.745,292.414H59.092v-4.915c0-24.999,20.339-45.338,45.338-45.338c24.715,0,44.86,19.883,45.315,44.491V292.414z   M174.844,122.687v169.728h-10.077c-0.004-29.148-0.019-147.705-0.021-169.728c0-21.258,17.191-37.801,37.8-37.801h112.94  c-2.78,4.605-8.283,9.945-10.275,16.971c-1.612,5.678-0.434,10.926,2.566,16.091c-0.752,0.677-1.739,1.085-2.79,1.085h-72.058  c-2.273,0-4.194-1.921-4.194-4.194v-4.795c0-8.304-6.756-15.06-15.06-15.06h-11.13C187.315,94.984,174.844,107.399,174.844,122.687z   M348.072,456c0,7.058-5.719,12.702-12.701,12.702H206.837l-12.11-158.769c-0.33-4.331-2.131-8.245-4.883-11.271V122.687  c0-7.045,5.766-12.702,12.701-12.702l11.189,0.06v4.795c0,10.584,8.61,19.194,19.194,19.194h72.058  c4.119,0,8.012-1.369,11.209-3.688c2.774,5.9-3.746,18.262,2.18,28.503c5.552,9.596,18.751,11.066,22.826,15.145  c2.341,2.339,4.162,8.54,6.871,13.629V456z M485.348,127.623c-2.421,9.054,1.859,20.113-0.227,23.714  c-2.101,3.633-13.981,5.582-20.45,12.049c-6.524,6.526-8.366,18.32-12.049,20.45c-3.535,2.048-14.731-2.173-23.712,0.225  c-8.855,2.367-16.217,11.651-20.67,11.651c-4.521,0-11.734-9.262-20.67-11.651c-8.952-2.39-20.195,1.805-23.712-0.225  c-3.582-2.072-5.616-14.016-12.05-20.45c-6.49-6.492-18.337-8.398-20.45-12.051c-2.055-3.548,2.18-14.719-0.225-23.712  c-2.358-8.818-11.65-16.213-11.65-20.669c0-4.511,9.279-11.76,11.665-20.731c2.343-8.888-1.816-20.148,0.21-23.651  c2.108-3.643,13.952-5.549,20.451-12.049c6.542-6.544,8.375-18.325,12.049-20.45c3.544-2.054,14.722,2.176,23.713-0.225  c8.853-2.366,16.217-11.651,20.669-11.651c4.521,0,11.734,9.262,20.67,11.651c8.867,2.365,20.204-1.803,23.713,0.226  c3.633,2.101,5.581,13.981,12.05,20.45c6.538,6.538,18.324,8.375,20.449,12.047c2.03,3.512-2.16,14.79,0.225,23.714  c2.366,8.853,11.651,16.217,11.651,20.669C496.998,111.455,487.727,118.718,485.348,127.623z"/><path d="M417.439,79.056l-19.236,19.236l-3.187-3.188c-7.83-7.83-20.57-7.828-28.4,0c-7.83,7.83-7.83,20.571,0,28.4l17.387,17.389  c3.793,3.792,8.836,5.881,14.2,5.881c5.363,0,10.406-2.088,14.201-5.881l33.436-33.438c7.828-7.83,7.828-20.569-0.001-28.4  C438.009,71.227,425.269,71.226,417.439,79.056z M435.233,96.85l-33.435,33.436c-1.998,1.998-5.216,1.975-7.188,0.002  l-17.387-17.389c-1.982-1.981-1.982-5.205-0.001-7.187c1.98-1.98,5.204-1.983,7.186-0.001l8.49,8.491  c2.925,2.927,7.677,2.93,10.607,0l24.539-24.54c1.981-1.982,5.206-1.983,7.188-0.001S437.214,94.868,435.233,96.85z"/><path d="M292.178,352.313h-45.973c-11.073,0-20.082,9.009-20.082,20.082s9.009,20.082,20.082,20.082h45.973  c11.073,0,20.082-9.009,20.082-20.082C312.26,361.321,303.251,352.313,292.178,352.313z M292.178,377.477h-45.973  c-2.803,0-5.082-2.279-5.082-5.082s2.279-5.082,5.082-5.082h45.973c2.803,0,5.082,2.279,5.082,5.082  C297.26,375.197,294.981,377.477,292.178,377.477z"/><path d="M268.41,225.976c-4.142,0-7.5,3.357-7.5,7.5v0.733c-11.112,0.669-19.954,9.896-19.954,21.172  c0,11.277,8.842,20.503,19.954,21.172v12.539h-6.436c-4.143,0-7.5,3.357-7.5,7.5s3.357,7.5,7.5,7.5h6.457  c0.217,3.948,3.477,7.084,7.479,7.084c4.024,0,7.297-3.17,7.482-7.148c11.12-0.66,19.972-9.89,19.972-21.173  c0-11.277-8.842-20.502-19.954-21.171v-12.54h5.685c4.143,0,7.5-3.357,7.5-7.5s-3.357-7.5-7.5-7.5h-5.685v-0.668  C275.91,229.333,272.553,225.976,268.41,225.976z M260.91,261.484c-2.826-0.594-4.954-3.104-4.954-6.103c0-3,2.128-5.51,4.954-6.103  V261.484z M280.864,282.855c0,3-2.128,5.51-4.954,6.103v-12.206C278.736,277.346,280.864,279.856,280.864,282.855z"/><path d="M85.425,344.043h38.374c4.143,0,7.5-3.357,7.5-7.5s-3.357-7.5-7.5-7.5H85.425c-4.143,0-7.5,3.357-7.5,7.5  S81.282,344.043,85.425,344.043z"/><path d="M269.192,199.149c-12.084,0-24.003,3.171-34.469,9.169c-3.594,2.06-4.837,6.643-2.777,10.236  c2.06,3.594,6.643,4.837,10.236,2.777c8.198-4.699,17.538-7.183,27.01-7.183c30.012,0,54.428,24.416,54.428,54.427  c0,30.012-24.416,54.428-54.428,54.428s-54.428-24.416-54.428-54.428c0-8.811,2.054-17.235,6.105-25.035  c1.909-3.677,0.477-8.204-3.199-10.113c-3.677-1.906-8.202-0.478-10.113,3.199c-5.098,9.817-7.793,20.865-7.793,31.949  c0,38.282,31.146,69.428,69.428,69.428s69.428-31.146,69.428-69.428S307.474,199.149,269.192,199.149z"/></g><g transform="matrix(0.1171875 0 0 0.1171875 291 94)" id="L1_97"><path d="M283.759,7.808H109.727c-25.675,0-46.487,20.814-46.487,46.487c0,33.014,0,385.979,0,404.038  c0,25.675,20.813,46.487,46.487,46.487h174.032c25.675,0,46.487-20.814,46.487-46.487c0-93.74,0-310.317,0-404.038  C330.247,28.621,309.433,7.808,283.759,7.808z" fill="#efefef"/><path d="M88.24,458.334c0-20.379,0-371.563,0-404.038c0-25.675,20.814-46.487,46.487-46.487h-25.001  c-25.675,0-46.487,20.814-46.487,46.487c0,33.014,0,385.979,0,404.038c0,25.675,20.813,46.487,46.487,46.487h25.001  C109.053,504.822,88.24,484.008,88.24,458.334z" fill="#dddddd"/><path d="M304.246,458.09c0,11.449-9.281,20.731-20.731,20.731H108.972c-11.45,0-20.732-9.281-20.732-20.732  V54.54c0-11.45,9.282-20.732,20.732-20.732h21.479c4.301,0,7.788,3.375,7.791,7.54v4.46c0,6.6,5.4,12,12,12h0.052h91.899h0.052  c6.6,0,12.001-5.4,12.001-12v-4.46c0.003-4.165,3.49-7.54,7.791-7.54h21.48c11.449,0,20.731,9.281,20.731,20.732  C304.246,78.178,304.246,442.413,304.246,458.09z" fill="#3997ee"/><path d="M115.241,458.09V54.54c0-10.299,7.518-18.821,17.361-20.434c-0.684-0.19-1.404-0.298-2.151-0.298  h-21.479c-11.45,0-20.732,9.282-20.732,20.732V458.09c0,11.449,9.282,20.732,20.732,20.732h27.001  C124.522,478.821,115.241,469.539,115.241,458.09z" fill="#1e88d8"/><path d="M229.154,357.818h-66.428c-9.113,0-16.5,7.387-16.5,16.5l0,0c0,9.113,7.387,16.5,16.5,16.5h66.428  c9.113,0,16.5-7.387,16.5-16.5l0,0C245.655,365.205,238.268,357.818,229.154,357.818z" fill="#64c4ff"/><path d="M195.94,374.317c0-9.113,7.387-16.5,16.5-16.5h-49.714c-9.113,0-16.5,7.387-16.5,16.5  s7.387,16.5,16.5,16.5h49.714C203.328,390.819,195.94,383.431,195.94,374.317z" fill="#48aef9"/><path d="M391.976,172.813H217.578l22.192,105.003h130.324c2.665,0,4.975-1.846,5.564-4.445l21.337-94.277  C397.722,175.875,395.276,172.813,391.976,172.813L391.976,172.813z" fill="#fac149"/><path d="M217.578,172.813 239.77,277.816 274.434,277.816 252.243,172.813z" fill="#f8a748"/><circle cx="401" cy="176" r="48" fill="#32cc65"/><path d="M383.129,187.063c-11.049-19.139-7.562-42.669,7.02-57.843c-4.333,1.069-8.592,2.745-12.651,5.089  c-23.198,13.393-31.146,43.056-17.753,66.254c13.393,23.198,43.056,31.146,66.254,17.752c4.059-2.343,7.64-5.194,10.732-8.411  C416.3,214.946,394.179,206.202,383.129,187.063z" fill="#23b658"/><circle cx="268" cy="323" r="13" fill="#647892"/><path d="M268.245,323.816c-2.404-4.165-2.232-9.101,0.006-12.99c-2.212-0.003-4.453,0.546-6.506,1.731  c-6.218,3.59-8.348,11.541-4.758,17.758c3.59,6.218,11.541,8.348,17.758,4.758c2.053-1.185,3.649-2.852,4.753-4.768  C275.012,330.3,270.649,327.981,268.245,323.816z" fill="#4d6682"/><circle cx="364" cy="323" r="13" fill="#647892"/><path d="M364.248,323.816c-2.405-4.165-2.232-9.101,0.006-12.99c-2.212-0.003-4.453,0.546-6.506,1.731  c-6.218,3.59-8.348,11.541-4.758,17.758c3.59,6.218,11.541,8.348,17.758,4.758c2.053-1.185,3.649-2.852,4.753-4.768  C371.014,330.3,366.652,327.981,364.248,323.816z" fill="#4d6682"/><path d="M224.39,40.757c4.143,0,7.5-3.357,7.5-7.5c0-4.142-3.357-7.5-7.5-7.5h-31.16c-4.143,0-7.5,3.358-7.5,7.5  c0,4.143,3.357,7.5,7.5,7.5H224.39z"/><path d="M166.891,40.759c4.071,0,7.5-3.306,7.5-7.5c0-4.801-4.442-8.27-8.971-7.36c-3.611,0.766-6.029,3.844-6.029,7.36  C159.39,37.431,162.802,40.759,166.891,40.759z"/><path d="M189.475,436.32c-4.143,0-7.5,3.357-7.5,7.5c0,4.143,3.357,7.5,7.5,7.5h10.92c4.143,0,7.5-3.357,7.5-7.5  c0-4.143-3.357-7.5-7.5-7.5H189.475z"/><path d="M452.339,152.553c-1.768-3.746-6.236-5.35-9.983-3.581c-3.746,1.768-5.35,6.237-3.581,9.983  c2.593,5.494,3.907,11.377,3.907,17.485c0,22.634-18.414,41.047-41.048,41.047c-23.443,0-42.789-19.922-40.907-44.276  c0-0.004,0-0.008,0-0.013c1.66-21.123,19.367-37.806,40.907-37.806c5.436,0,10.724,1.051,15.716,3.122  c3.826,1.588,8.215-0.227,9.802-4.052c1.588-3.826-0.227-8.215-4.052-9.802c-6.824-2.833-14.047-4.269-21.467-4.269  c-27.032,0-49.654,19.237-54.9,44.738h-9.916V53.987C336.818,24.219,312.6,0,282.831,0H108.306  C78.537,0,54.317,24.219,54.317,53.987v56.405c0,4.143,3.358,7.5,7.5,7.5c4.143,0,7.5-3.357,7.5-7.5V53.987  C69.318,32.49,86.808,15,108.307,15h174.525c21.497,0,38.986,17.489,38.986,38.987v111.144h-10.755V53.988  c0-15.566-12.664-28.233-28.231-28.233H261.08c-8.407,0-15.251,6.84-15.257,15.253v4.925c0,2.439-2.062,4.5-4.501,4.5h-91.506  c-2.439,0-4.501-2.061-4.501-4.5v-4.928c-0.004-8.409-6.848-15.25-15.257-15.25h-21.751c-15.567,0-28.232,12.665-28.232,28.233  v404.024c0,15.566,12.664,28.231,28.232,28.231h174.525c15.566,0,28.231-12.664,28.231-28.231v-22.066c0-4.142-3.357-7.5-7.5-7.5  c-4.142,0-7.5,3.358-7.5,7.5v22.066c0,7.295-5.935,13.23-13.23,13.23H108.307c-7.296,0-13.231-5.936-13.231-13.23V53.988  c0-7.296,5.936-13.232,13.231-13.232h21.751c0.142,0,0.257,0.115,0.257,0.253v4.925c0,10.752,8.748,19.501,19.502,19.501h91.505  c10.753,0,19.502-8.748,19.502-19.501v-4.92c0-0.142,0.115-0.258,0.257-0.258h21.752c7.295,0,13.23,5.936,13.23,13.232v111.143  h-72.711l-7.789-36.854c-0.732-3.468-3.793-5.949-7.338-5.949h-31.959c-4.143,0-7.5,3.357-7.5,7.5c0,4.143,3.357,7.5,7.5,7.5h25.878  c2.279,10.783,32.896,157.766,36.494,174.791l0,0c0.694,3.514,3.776,6.046,7.357,6.046h2.678c-0.471,1.716-0.744,3.514-0.744,5.378  c0,11.236,9.142,20.379,20.379,20.379s20.379-9.142,20.379-20.379c0-1.864-0.273-3.661-0.744-5.378h8.12v82.78  c0,4.143,3.358,7.5,7.5,7.5c4.143,0,7.5-3.357,7.5-7.5v-82.78h10.755v139.847c0,21.498-17.489,38.987-38.986,38.987H108.306  c-21.499,0-38.988-17.49-38.988-38.987V145.394c0-4.143-3.357-7.5-7.5-7.5c-4.142,0-7.5,3.357-7.5,7.5v312.619  c0,29.769,24.22,53.987,53.988,53.987h174.525c29.769,0,53.986-24.219,53.986-53.987V318.166h7.433  c-0.471,1.716-0.744,3.514-0.744,5.378c0,11.236,9.142,20.379,20.379,20.379s20.379-9.142,20.379-20.379  c0-10.977-8.731-19.931-19.61-20.34c-0.253-0.026-0.509-0.039-0.768-0.039c-7.818,0-99.396,0-111.729,0l-3.489-17.652h126.239  c3.544,0,6.605-2.482,7.338-5.949l10.114-47.855c3.019,0.505,6.114,0.781,9.274,0.781c30.905,0,56.049-25.143,56.049-56.048  C457.683,168.103,455.885,160.065,452.339,152.553z M363.886,318.166c2.966,0,5.378,2.412,5.378,5.378  c0,2.966-2.412,5.378-5.378,5.378c-2.966,0-5.378-2.412-5.378-5.378C358.508,320.578,360.92,318.166,363.886,318.166z   M268.307,318.166c2.966,0,5.378,2.412,5.378,5.378c0,2.966-2.412,5.378-5.378,5.378c-2.966,0-5.378-2.412-5.378-5.378  C262.929,320.578,265.341,318.166,268.307,318.166z M368.826,270.512H245.622l-19.102-90.38c34.023,0,79.018,0,119.185,0  c1.321,20.322,13.57,38.453,32.264,47.125L368.826,270.512z"/><path d="M401.634,200.173c4.143,0,7.5-3.357,7.5-7.5v-8.732h8.731c4.143,0,7.5-3.357,7.5-7.5s-3.357-7.5-7.5-7.5h-8.731v-8.731  c0-4.143-3.357-7.5-7.5-7.5s-7.5,3.357-7.5,7.5v8.731h-8.732c-4.142,0-7.5,3.357-7.5,7.5s3.358,7.5,7.5,7.5h8.732v8.732  C394.134,196.816,397.491,200.173,401.634,200.173z"/><path d="M170.125,165.132h-21.896c-4.143,0-7.5,3.357-7.5,7.5c0,4.143,3.357,7.5,7.5,7.5h21.896c4.143,0,7.5-3.357,7.5-7.5  C177.625,168.489,174.268,165.132,170.125,165.132z"/><path d="M177.884,200.258h-21.896c-4.143,0-7.5,3.357-7.5,7.5c0,4.143,3.357,7.5,7.5,7.5h21.896c4.143,0,7.5-3.357,7.5-7.5  C185.384,203.616,182.026,200.258,177.884,200.258z"/><path d="M164.008,278.013c0,4.142,3.357,7.5,7.5,7.5h21.896c4.143,0,7.5-3.358,7.5-7.5c0-4.143-3.357-7.5-7.5-7.5h-21.896  C167.365,270.512,164.008,273.87,164.008,278.013z"/><path d="M185.643,235.385h-21.896c-4.143,0-7.5,3.357-7.5,7.5c0,4.143,3.357,7.5,7.5,7.5h21.896c4.143,0,7.5-3.357,7.5-7.5  C193.143,238.743,189.785,235.385,185.643,235.385z"/><path d="M250.467,374.72c0-13.206-10.744-23.951-23.951-23.951h-66.228c-13.206,0-23.951,10.744-23.951,23.951  c0,13.206,10.744,23.951,23.951,23.951h66.228C239.723,398.671,250.467,387.927,250.467,374.72z M151.338,374.72  c0-4.935,4.015-8.95,8.95-8.95h66.228c4.936,0,8.95,4.015,8.95,8.95c0,4.936-4.015,8.95-8.95,8.95h-66.228  C155.353,383.671,151.338,379.656,151.338,374.72z"/></g><g transform="matrix(0.1171877309679985 0 0 0.1171877309679985 83 14.00000165939673)" id="L1_98"><path d="M241.663,222.701c-1.15-2.132-3.318-3.451-5.671-3.451c-11.891,0-83.028,0-94.963,0l0,0  c-13.915,0-83.195,0-94.94,0c-2.366,0-4.548,1.328-5.704,3.471l-30.217,56.03c2.407-2.737,5.861-4.464,9.712-4.464  c10.574,0,232.263,0,242.3,0c3.851,0,7.305,1.728,9.712,4.464L241.663,222.701z" fill="#f8a748"/><path d="M82.059,219.249c-12.451,0-23.507,0-35.97,0c-2.366,0-4.548,1.328-5.704,3.471l-30.217,56.03  c2.407-2.737,5.861-4.464,9.712-4.464c11.112,0,31.755,0,41.055,0l17.528-51.565C79.192,220.577,80.567,219.249,82.059,219.249z" fill="#ef8c29"/><path d="M110.63,219.249v55.037h60.001v-55.037C163.372,219.249,117.937,219.249,110.63,219.249z" fill="#dddddd"/><path d="M110.63,219.249v55.037h30v-55.037C130.139,219.249,121.123,219.249,110.63,219.249z" fill="#ceccca"/><path d="M274.632,285.336c0-7.228-5.859-13.087-13.087-13.087c-9.924,0-230.284,0-240.829,0  c-7.228,0-13.087,5.859-13.087,13.087c0,9.186,0,192.736,0,202.828c0,7.228,5.859,13.087,13.087,13.087h240.829  c7.228,0,13.087-5.859,13.087-13.087C274.632,478.218,274.632,294.438,274.632,285.336z" fill="#fac149"/><path d="M61.63,488.165c0-8.422,0-205.103,0-215.916c-9.699,0-30.086,0-40.913,0  c-7.228,0-13.087,5.859-13.087,13.087c0,9.186,0,192.736,0,202.828c0,7.228,5.859,13.087,13.087,13.087h54.001  C67.49,501.252,61.63,495.393,61.63,488.165z" fill="#f8a748"/><path d="M121.014,336.929c9.676,0,9.676,7.083,19.352,7.083c9.677,0,9.677-7.083,19.355-7.083  c4.227,0,6.608,1.351,8.756,2.873c0.904,0.64,2.154-0.025,2.154-1.133v-66.42h-60.001v66.087c0,1.084,1.212,1.743,2.108,1.133  C114.768,338.088,117.099,336.929,121.014,336.929z" fill="#efefef"/><path d="M140.631,272.249h-30v66.087c0,1.084,1.212,1.743,2.108,1.133c2.029-1.38,4.36-2.54,8.275-2.54  c9.676,0,9.676,7.083,19.352,7.083c0.094,0,0.173-0.011,0.265-0.012V272.249z" fill="#dddddd"/><path d="M426.602,10.792c-15.34,0.017-29.977,4.898-42.207,13.899l0,0  c-31.787,23.394-38.592,68.128-15.198,99.915l49.537,67.311c3.904,5.305,11.833,5.305,15.737,0l49.537-67.311  C518.828,77.292,484.427,10.857,426.602,10.792z M426.134,118.247c-20.158,0-36.5-16.342-36.5-36.5c0-20.159,16.341-36.5,36.5-36.5  c20.158,0,36.5,16.341,36.5,36.5S446.293,118.247,426.134,118.247z" fill="#fc5b6f"/><path d="M426.154,244.133c-7.771-0.547-13.253-7.202-12.758-14.538c0.375-7.18,6.763-13.277,14.529-12.753  c7.325,0.382,13.268,6.933,12.753,14.529C440.31,238.535,433.977,244.588,426.154,244.133z" fill="#647892"/><path d="M427.051,216.827c-7.532-0.018-13.301,5.987-13.654,12.768c-0.496,7.329,4.983,13.989,12.758,14.538  c5.089,0.296,9.987-2.108,12.719-6.829C428.348,237.318,421.798,225.976,427.051,216.827z" fill="#4d6682"/><path d="M426.602,150.581c-25.708,0-48.38-12.989-61.819-32.76c1.332,2.315,2.793,4.584,4.414,6.786  l49.537,67.311c3.904,5.305,11.833,5.305,15.737,0l49.537-67.311c1.621-2.202,3.082-4.472,4.414-6.787  C474.983,137.591,452.311,150.581,426.602,150.581z" fill="#f74352"/><path d="M457.558,398.834c-7.787-0.55-13.252-7.216-12.758-14.538c0.372-7.139,6.722-13.28,14.529-12.753  c6.159,0.321,11.734,5.05,12.669,11.851C473.136,392.039,466.091,399.331,457.558,398.834z" fill="#647892"/><path d="M458.455,371.527c-7.566-0.016-13.302,6.022-13.655,12.768c-0.5,7.403,5.048,13.995,12.758,14.538  c5.097,0.297,9.989-2.112,12.719-6.829C459.728,392.02,453.21,380.657,458.455,371.527z" fill="#4d6682"/><path d="M322.245,398.834c-6.654-0.47-11.791-5.437-12.674-11.86c-1.119-8.524,5.811-16.013,14.446-15.431  c7.337,0.383,13.267,6.946,12.753,14.529C336.402,393.224,330.077,399.29,322.245,398.834z" fill="#647892"/><path d="M323.141,371.527c-8.428-0.02-14.63,7.375-13.571,15.446c0.886,6.439,6.037,11.392,12.674,11.86  c5.094,0.297,9.989-2.113,12.719-6.829C324.436,392.016,317.884,380.676,323.141,371.527z" fill="#4d6682"/><path d="M457.007,279.945H337.924c-11.569,0-20.982-9.412-20.982-20.98s9.412-20.98,20.982-20.98h69.331  c3.208,8.522,11.257,13.678,19.778,13.678c12.819,0,22.403-11.307,21.068-23.302c-0.959-9.935-9.084-18.045-18.961-18.947  c-9.254-0.957-18.415,4.351-21.888,13.571h-69.328c-19.84,0-35.982,16.141-35.982,35.98c0,19.84,16.142,35.98,35.982,35.98h119.083  c22.052,0,39.992,17.94,39.992,39.993c0,15.541-8.547,29.797-21.82,37.279c-3.57-4.662-9.207-7.699-15.009-8.139  c-1.398-0.116-2.817-0.094-4.141,0.066c-7.547,0.82-14.515,5.921-17.386,13.539H342.9c-2.93-7.797-10.142-12.877-17.663-13.57  c-13.4-1.37-24.598,10.094-23.186,23.175c0.981,10.41,9.861,19.074,21.07,19.074c8.55,0,16.597-5.227,19.779-13.679h95.761  c3.112,8.245,10.992,13.815,20.148,13.676c10.683-0.184,19.792-8.344,20.734-19.509c19.618-9.587,32.455-29.782,32.455-51.913  C512,304.616,487.331,279.945,457.007,279.945z M422.242,226.577c3.654-4.416,10.97-1.955,10.97,3.905c0,3.515-2.911,6.18-6.18,6.18  C421.893,236.662,418.948,230.631,422.242,226.577z M323.622,391.341c-3.251,0.373-6.68-2.375-6.68-6.156  c0-3.073,2.387-5.861,5.601-6.147c3.583-0.359,6.759,2.525,6.759,6.147C329.302,388.177,327.137,390.961,323.622,391.341z   M464.602,385.573c-0.334,3.662-3.284,5.747-6.053,5.79c-0.001,0-0.001,0-0.001,0c-3.464,0.07-6.24-2.758-6.289-6.084  c-0.072-3.464,2.913-6.557,6.715-6.247C462.296,379.278,464.896,382.527,464.602,385.573z"/><path d="M232.922,471.105c4.143,0,7.5-3.357,7.5-7.5c0-4.143-3.357-7.5-7.5-7.5h-32.064c-4.143,0-7.5,3.357-7.5,7.5  c0,4.143,3.357,7.5,7.5,7.5H232.922z"/><path d="M426.597,38.159c-24.25,0-43.979,19.73-43.979,43.981s19.728,43.98,43.979,43.98s43.98-19.729,43.98-43.98  S450.847,38.159,426.597,38.159z M426.597,111.118c-15.978,0-28.978-13-28.978-28.979s13-28.98,28.978-28.98  c15.979,0,28.979,13,28.979,28.98C455.576,98.118,442.576,111.118,426.597,111.118z"/><path d="M412.688,196.361c3.29,4.47,8.359,7.034,13.909,7.034c5.551,0,10.62-2.565,13.909-7.034l49.538-67.31  c19.274-26.19,20.613-60.957,3.413-88.57c-2.191-3.517-6.817-4.591-10.331-2.401c-3.517,2.19-4.591,6.815-2.401,10.331  c13.935,22.371,12.851,50.535-2.762,71.75l-49.538,67.31c-0.912,1.24-2.75,1.23-3.656,0l-49.536-67.31  c-31.118-42.285-0.528-101.81,51.356-101.869c11.068,0.013,21.979,2.915,31.55,8.394c3.597,2.056,8.176,0.811,10.235-2.784  c2.057-3.596,0.811-8.178-2.784-10.235c-11.832-6.77-25.312-10.358-39.001-10.374c-63.927,0.074-101.932,73.452-63.437,125.76  L412.688,196.361z"/><path d="M247.619,218.924c0,0-0.001,0-0.001-0.001c-2.473-4.415-7.153-7.157-12.213-7.157c-9.543,0-163.259,0-188.762,0  c-5.061,0-9.741,2.742-12.215,7.158l-29.66,52.963C1.794,275.456,0,280.041,0,285.04v22.794c0,4.143,3.358,7.5,7.5,7.5  c4.143,0,7.5-3.357,7.5-7.5V285.04c0-3.05,2.498-5.587,5.588-5.587h82.999v58.584c0,7.12,7.982,11.314,13.845,7.321  c1.089-0.74,1.957-1.226,4.017-1.226c2.372,0,3.147,0.568,5.219,2.089c2.712,1.988,6.809,4.994,14.093,4.994  s11.381-3.005,14.092-4.994c2.073-1.521,2.849-2.089,5.221-2.089c2.19,0,3.049,0.533,4.381,1.478  c5.873,4.163,14.007-0.045,14.007-7.241v-58.917h82.999c3.083,0,5.587,2.526,5.587,5.587v203.078c0,3.081-2.506,5.587-5.587,5.587  h-26.399c-4.143,0-7.5,3.357-7.5,7.5c0,4.143,3.357,7.5,7.5,7.5h26.397c11.352,0,20.587-9.235,20.587-20.587V285.04  c0-4.999-1.794-9.584-4.768-13.154L247.619,218.924z M103.587,264.453H26.123l21.105-37.688h56.358v37.688H103.587z   M163.461,329.361c-7.317-1.031-12.495,1.108-17.479,4.766c-2.073,1.52-2.849,2.089-5.221,2.089s-3.147-0.568-5.221-2.089  c-4.994-3.665-9.817-5.667-16.952-4.832v-49.842h44.874L163.461,329.361L163.461,329.361z M163.461,264.453h-44.874v-37.688h44.874  V264.453z M178.461,264.453v-37.688h56.358l21.105,37.688H178.461z"/><path d="M200.062,493.706H20.587c-3.081,0-5.587-2.506-5.587-5.587V342.835c0-4.143-3.357-7.5-7.5-7.5c-4.142,0-7.5,3.357-7.5,7.5  v145.284c0,11.352,9.235,20.587,20.587,20.587h179.475c4.143,0,7.5-3.357,7.5-7.5C207.562,497.063,204.204,493.706,200.062,493.706z  "/></g><g transform="matrix(0.1171875 0 0 0.1171875 313.0000004148484 284)" id="L1_100"><path d="M348.598,6.893H208.451c-8.556,0-16.762,3.386-22.812,9.415l-82.892,82.596  c-5.605,5.585-8.754,13.159-8.754,21.057v196.478l123.699,93.389c6.047,4.566,14.406,4.566,20.454,0l117.153-88.446l6.108-5.008  V178.644V19.655C361.408,12.607,355.673,6.893,348.598,6.893z" fill="#efefef"/><g><path d="M121.035,80.68l-18.288,18.223c-5.605,5.585-8.754,13.159-8.754,21.057v196.478l27.042,20.416V80.68   z" fill="#dddddd"/><path d="M194.525,95.288V10.324c-3.482,1.579-6.69,3.77-9.449,6.517l-82.796,82.485   c-2.555,2.546-4.593,5.508-6.062,8.723h85.497C188.79,108.05,194.525,102.336,194.525,95.288z" fill="#dddddd"/></g><path d="M145.372,95.288v-38.89l-43.091,42.93c-2.555,2.546-4.593,5.508-6.062,8.723h61.963  C151.108,108.05,145.372,102.336,145.372,95.288z" fill="#ceccca"/><path d="M93.993,193.534 16.873,251.272 93.993,252.274z" fill="#3997ee"/><g><path d="M93.993,238.041 93.993,193.534 16.873,251.272 75.307,252.031z" fill="#48aef9"/><path d="M404.475,315.372c-10.581,0-39.976,0-51.766,0L236.856,404.2c-6.055,4.643-14.473,4.643-20.529,0   L93.993,310.402v-59.13h-77.12v236.492c0,9.335,7.567,16.901,16.901,16.901h387.852c9.335,0,16.901-7.567,16.901-16.901V315.372   H404.475z" fill="#48aef9"/></g><path d="M59.36,487.764V251.272H16.873v236.492c0,9.335,7.567,16.901,16.901,16.901h42.487  C66.927,504.666,59.36,497.099,59.36,487.764z" fill="#3997ee"/><path d="M93.993,310.402 93.993,251.272 16.873,251.272z" fill="#1e88d8"/><path d="M93.993,310.402v-59.13H81.021c-20.796,0-29.745,26.378-13.242,39.032L93.993,310.402L93.993,310.402  z" fill="#107ec1"/><g><path d="M404.475,315.372v14.956c0,11.892-9.641,21.533-21.533,21.533l0,0   c-11.892,0-21.533-9.641-21.533-21.533v-14.956H404.475z" fill="#fac149"/><path d="M456.516,310.643c-7.229-4.93-11.979-13.243-11.979-22.668V236.04   c0-33.602-27.493-61.095-61.095-61.095l0,0c-33.602,0-61.095,27.493-61.095,61.095v51.936c0,9.854-5.192,18.49-12.98,23.317v4.079   c19.671,0,124.386,0,147.15,0v-4.728H456.516z" fill="#fac149"/></g><path d="M364.747,287.975V236.04c0-26.158,16.663-48.607,39.895-57.273c-6.612-2.467-13.754-3.822-21.2-3.822  c-33.602,0-61.095,27.493-61.095,61.095v51.936c0,9.854-5.192,18.49-12.98,23.317v4.079c8.946,0,32.32,0,42.399,0v-4.079  C359.555,306.465,364.747,297.829,364.747,287.975z" fill="#f8a748"/><path d="M433.747,125.696c1.184,0.683,2.475,1.008,3.749,1.008c2.596,0,5.121-1.347,6.512-3.757l12.639-21.891  c2.074-3.593,0.843-8.187-2.749-10.261c-3.596-2.074-8.189-0.844-10.261,2.749l-12.639,21.891  C428.924,119.028,430.155,123.622,433.747,125.696z"/><path d="M454.476,146.423c1.392,2.41,3.916,3.757,6.512,3.757c1.274,0,2.567-0.325,3.749-1.008l21.891-12.64  c3.593-2.074,4.824-6.668,2.749-10.261c-2.075-3.595-6.67-4.821-10.261-2.749l-21.891,12.64  C453.632,138.237,452.4,142.831,454.476,146.423z"/><path d="M494.851,167.227h-25.277c-4.149,0-7.512,3.362-7.512,7.512s3.362,7.512,7.512,7.512h25.277  c4.148,0,7.512-3.362,7.512-7.512C502.363,170.589,499,167.227,494.851,167.227z"/><path d="M144.044,223.4h142.497c4.149,0,7.512-3.362,7.512-7.512c0-4.149-3.362-7.512-7.512-7.512H144.044  c-4.148,0-7.512,3.362-7.512,7.512C136.532,220.037,139.895,223.4,144.044,223.4z"/><path d="M294.054,248.94c0-4.149-3.362-7.512-7.512-7.512H144.044c-4.148,0-7.512,3.362-7.512,7.512s3.363,7.512,7.512,7.512  h142.497C290.69,256.451,294.054,253.088,294.054,248.94z"/><path d="M253.573,274.479H144.044c-4.148,0-7.512,3.362-7.512,7.512s3.363,7.512,7.512,7.512h109.528  c4.149,0,7.512-3.362,7.512-7.512S257.721,274.479,253.573,274.479z"/><path d="M253.573,307.531h-91.964c-4.148,0-7.512,3.362-7.512,7.512s3.363,7.512,7.512,7.512h91.964  c4.149,0,7.512-3.362,7.512-7.512S257.721,307.531,253.573,307.531z"/><path d="M144.044,157.297h142.497c4.149,0,7.512-3.362,7.512-7.512c0-4.149-3.362-7.512-7.512-7.512H144.044  c-4.148,0-7.512,3.362-7.512,7.512C136.532,153.934,139.895,157.297,144.044,157.297z"/><path d="M144.044,190.349h142.497c4.149,0,7.512-3.362,7.512-7.512s-3.362-7.512-7.512-7.512H144.044  c-4.148,0-7.512,3.362-7.512,7.512C136.532,186.985,139.895,190.349,144.044,190.349z"/><path d="M471.71,308.135c-10.964,0-19.884-8.92-19.884-19.885v-51.78c0-11.664-3.022-23.221-8.737-33.423  c-2.027-3.619-6.604-4.907-10.225-2.881c-3.619,2.027-4.909,6.605-2.882,10.225c4.461,7.962,6.82,16.981,6.82,26.079v51.78  c0,7.383,2.304,14.239,6.232,19.885c-33.924,0-59.998,0-119.94,0c3.927-5.647,6.232-12.501,6.232-19.885v-51.779v-0.004  c0-28.973,23.777-53.734,53.738-53.734c8.742,0,17.108,2.072,24.867,6.161c3.67,1.932,8.213,0.526,10.147-3.144  c1.935-3.67,0.527-8.213-3.144-10.147c-2.908-1.532-5.925-2.844-9.017-3.941c3.953-4.979,6.323-11.269,6.323-18.105  c0-16.088-13.087-29.176-29.175-29.176c-5.185,0-10.055,1.366-14.279,3.748V20.273C368.786,9.095,359.69,0,348.512,0H208.609  c-10.953,0-20.843,4.422-28.037,11.613L98.087,94.098c-6.783,6.783-10.923,16.09-10.923,26.37v69.029l-74.552,56.486  c-2.049,1.545-2.858,3.559-2.976,6.052c0,0,0,0.002,0,0.003v53.181c0,4.149,3.363,7.512,7.512,7.512s7.512-3.362,7.512-7.512  v-38.134c7.541,5.713,179.758,136.198,188.59,142.891c8.608,6.522,20.742,6.596,29.448-0.001l111.191-84.246v4.743  c0,16.088,13.087,29.175,29.175,29.175c16.088,0,29.175-13.087,29.175-29.175v-7.314h19.05v164.429c0,5.177-4.213,9.39-9.39,9.39  h-21.307c-4.149,0-7.512,3.363-7.512,7.512c0,4.149,3.362,7.512,7.512,7.512h21.307c13.461,0,24.413-10.951,24.413-24.413V323.159  c14.096,0,11.085,0,25.398,0c4.149,0,7.512-3.362,7.512-7.512S475.86,308.135,471.71,308.135z M383.065,139.404  c7.803,0,14.152,6.349,14.152,14.153c0,7.803-6.349,14.152-14.152,14.152c-7.803,0-14.152-6.349-14.152-14.152  C368.913,145.752,375.262,139.404,383.065,139.404z M87.163,295.595l-47.662-36.113h47.662V295.595z M87.163,244.459H39.501  l47.662-36.113V244.459z M187.786,25.647v69.724c0,2.895-2.356,5.25-5.25,5.25h-69.724L187.786,25.647z M233.626,398.001  c-3.313,2.511-7.961,2.531-11.303,0.001l-120.137-91.025l0,0V120.468l0,0c0-1.645,0.194-3.256,0.539-4.823h79.809  c11.179,0,20.273-9.095,20.273-20.273V15.71c1.877-0.452,3.82-0.687,5.8-0.687h139.903c2.895,0,5.25,2.355,5.25,5.25v154.007  c-23.373,11.057-39.459,34.883-39.459,62.186v0.003v0.001v51.779c0,10.965-8.92,19.885-19.885,19.885  c-4.149,0-7.512,3.362-7.512,7.512s3.362,7.512,7.512,7.512c13.854,0,29.154,0,37.988,0L233.626,398.001z M397.217,330.473  c0,7.803-6.349,14.152-14.152,14.152c-7.803,0-14.152-6.349-14.152-14.152v-7.314h28.304V330.473z"/><path d="M365.538,496.977H34.05c-5.177,0-9.39-4.213-9.39-9.39V340.274c0-4.149-3.363-7.512-7.512-7.512s-7.512,3.362-7.512,7.512  v147.313C9.637,501.049,20.589,512,34.05,512h331.488c4.149,0,7.512-3.362,7.512-7.512  C373.049,500.34,369.686,496.977,365.538,496.977z"/></g></defs><g fi:class="KUsePattern"><pattern id="pattern_L1_96" width="350" height="350" patternUnits="userSpaceOnUse"><use xlink:href="#L1_96" x="-350" y="-350"/><use xlink:href="#L1_96" x="0" y="-350"/><use xlink:href="#L1_96" x="350" y="-350"/><use xlink:href="#L1_96" x="-350" y="0"/><use xlink:href="#L1_96" x="0" y="0"/><use xlink:href="#L1_96" x="350" y="0"/><use xlink:href="#L1_96" x="-350" y="350"/><use xlink:href="#L1_96" x="0" y="350"/><use xlink:href="#L1_96" x="350" y="350"/></pattern><rect x="0" y="0" width="100%" height="100%" fill="url(#pattern_L1_96)"/></g><g fi:class="KUsePattern"><pattern id="pattern_L1_97" width="350" height="350" patternUnits="userSpaceOnUse"><use xlink:href="#L1_97" x="-350" y="-350"/><use xlink:href="#L1_97" x="0" y="-350"/><use xlink:href="#L1_97" x="350" y="-350"/><use xlink:href="#L1_97" x="-350" y="0"/><use xlink:href="#L1_97" x="0" y="0"/><use xlink:href="#L1_97" x="350" y="0"/><use xlink:href="#L1_97" x="-350" y="350"/><use xlink:href="#L1_97" x="0" y="350"/><use xlink:href="#L1_97" x="350" y="350"/></pattern><rect x="0" y="0" width="100%" height="100%" fill="url(#pattern_L1_97)"/></g><g fi:class="KUsePattern"><pattern id="pattern_L1_98" width="350" height="350" patternUnits="userSpaceOnUse"><use xlink:href="#L1_98" x="-350" y="-350"/><use xlink:href="#L1_98" x="0" y="-350"/><use xlink:href="#L1_98" x="350" y="-350"/><use xlink:href="#L1_98" x="-350" y="0"/><use xlink:href="#L1_98" x="0" y="0"/><use xlink:href="#L1_98" x="350" y="0"/><use xlink:href="#L1_98" x="-350" y="350"/><use xlink:href="#L1_98" x="0" y="350"/><use xlink:href="#L1_98" x="350" y="350"/></pattern><rect x="0" y="0" width="100%" height="100%" fill="url(#pattern_L1_98)"/></g><g fi:class="KUsePattern"><pattern id="pattern_L1_100" width="350" height="350" patternUnits="userSpaceOnUse"><use xlink:href="#L1_100" x="-350" y="-350"/><use xlink:href="#L1_100" x="0" y="-350"/><use xlink:href="#L1_100" x="350" y="-350"/><use xlink:href="#L1_100" x="-350" y="0"/><use xlink:href="#L1_100" x="0" y="0"/><use xlink:href="#L1_100" x="350" y="0"/><use xlink:href="#L1_100" x="-350" y="350"/><use xlink:href="#L1_100" x="0" y="350"/><use xlink:href="#L1_100" x="350" y="350"/></pattern><rect x="0" y="0" width="100%" height="100%" fill="url(#pattern_L1_100)"/></g></svg>